<?xml version="1.0" encoding="UTF-8" standalone="no"?>
<!-- Created with Inkscape (http://www.inkscape.org/) -->

<svg
   xmlns:dc="http://purl.org/dc/elements/1.1/"
   xmlns:cc="http://creativecommons.org/ns#"
   xmlns:rdf="http://www.w3.org/1999/02/22-rdf-syntax-ns#"
   xmlns:svg="http://www.w3.org/2000/svg"
   xmlns="http://www.w3.org/2000/svg"
   xmlns:sodipodi="http://sodipodi.sourceforge.net/DTD/sodipodi-0.dtd"
   xmlns:inkscape="http://www.inkscape.org/namespaces/inkscape"
   width="210mm"
   height="297mm"
   viewBox="0 0 744.09448819 1052.3622047"
   id="svg3397"
   version="1.1"
   inkscape:version="0.91 r13725"
   sodipodi:docname="colour_wheel.svg"
   inkscape:export-filename="/Volumes/TRUECRYPT1/Laptop/My Moths/lateral-keys/colours/yellow.png"
   inkscape:export-xdpi="155"
   inkscape:export-ydpi="155">
  <defs
     id="defs3399" />
  <sodipodi:namedview
     id="base"
     pagecolor="#ffffff"
     bordercolor="#666666"
     borderopacity="1.0"
     inkscape:pageopacity="0.0"
     inkscape:pageshadow="2"
     inkscape:zoom="1.218"
     inkscape:cx="272.29202"
     inkscape:cy="423.5758"
     inkscape:document-units="px"
     inkscape:current-layer="layer1"
     showgrid="false"
     inkscape:snap-global="true"
     inkscape:snap-bbox="true"
     inkscape:snap-bbox-midpoints="true"
     inkscape:bbox-paths="true"
     inkscape:window-width="1834"
     inkscape:window-height="772"
     inkscape:window-x="0"
     inkscape:window-y="1"
     inkscape:window-maximized="0" />
  <metadata
     id="metadata3402">
    <rdf:RDF>
      <cc:Work
         rdf:about="">
        <dc:format>image/svg+xml</dc:format>
        <dc:type
           rdf:resource="http://purl.org/dc/dcmitype/StillImage" />
        <dc:title />
      </cc:Work>
    </rdf:RDF>
  </metadata>
  <g
     inkscape:label="Layer 1"
     inkscape:groupmode="layer"
     id="layer1">
    <path
       style="color:#000000;font-style:normal;font-variant:normal;font-weight:normal;font-stretch:normal;font-size:medium;line-height:normal;font-family:sans-serif;text-indent:0;text-align:start;text-decoration:none;text-decoration-line:none;text-decoration-style:solid;text-decoration-color:#000000;letter-spacing:normal;word-spacing:normal;text-transform:none;direction:ltr;block-progression:tb;writing-mode:lr-tb;baseline-shift:baseline;text-anchor:start;white-space:normal;clip-rule:nonzero;display:inline;overflow:visible;visibility:visible;opacity:1;isolation:auto;mix-blend-mode:normal;color-interpolation:sRGB;color-interpolation-filters:linearRGB;solid-color:#000000;solid-opacity:1;fill:#000000;fill-opacity:1;fill-rule:nonzero;stroke:none;stroke-width:0.97035038;stroke-linecap:butt;stroke-linejoin:miter;stroke-miterlimit:4;stroke-dasharray:none;stroke-dashoffset:0;stroke-opacity:1;color-rendering:auto;image-rendering:auto;shape-rendering:auto;text-rendering:auto;enable-background:accumulate"
       d="m 531.99153,691.06771 c 97.62702,-97.62701 97.62702,-255.92637 0,-353.55338 -97.62702,-97.62702 -255.92638,-97.62702 -353.5534,-2e-5 -97.627017,97.62702 -97.627001,255.92639 1e-5,353.5534 97.62701,97.62702 255.92638,97.62703 353.55339,0 z m -0.68639,-0.68639 c -97.25616,97.25621 -254.92441,97.2562 -352.18061,0 -97.256201,-97.2562 -97.256203,-254.92444 0,-352.18061 97.2562,-97.25618 254.9244,-97.25618 352.18062,10e-6 97.25618,97.25616 97.25619,254.9244 -10e-6,352.1806 z"
       id="path3405"
       inkscape:connector-curvature="0" />
    <path
       style="color:#000000;font-style:normal;font-variant:normal;font-weight:normal;font-stretch:normal;font-size:medium;line-height:normal;font-family:sans-serif;text-indent:0;text-align:start;text-decoration:none;text-decoration-line:none;text-decoration-style:solid;text-decoration-color:#000000;letter-spacing:normal;word-spacing:normal;text-transform:none;direction:ltr;block-progression:tb;writing-mode:lr-tb;baseline-shift:baseline;text-anchor:start;white-space:normal;clip-rule:nonzero;display:inline;overflow:visible;visibility:visible;opacity:1;isolation:auto;mix-blend-mode:normal;color-interpolation:sRGB;color-interpolation-filters:linearRGB;solid-color:#000000;solid-opacity:1;fill:#000000;fill-opacity:1;fill-rule:evenodd;stroke:none;stroke-width:0.9113574px;stroke-linecap:butt;stroke-linejoin:miter;stroke-miterlimit:4;stroke-dasharray:none;stroke-dashoffset:0;stroke-opacity:1;color-rendering:auto;image-rendering:auto;shape-rendering:auto;text-rendering:auto;enable-background:accumulate"
       d="m 532.01501,338.13443 -0.64359,-0.64359 -352.63498,352.63498 0.6436,0.64358 352.63497,-352.63497 z"
       id="path3429"
       inkscape:connector-curvature="0" />
    <path
       style="color:#000000;font-style:normal;font-variant:normal;font-weight:normal;font-stretch:normal;font-size:medium;line-height:normal;font-family:sans-serif;text-indent:0;text-align:start;text-decoration:none;text-decoration-line:none;text-decoration-style:solid;text-decoration-color:#000000;letter-spacing:normal;word-spacing:normal;text-transform:none;direction:ltr;block-progression:tb;writing-mode:lr-tb;baseline-shift:baseline;text-anchor:start;white-space:normal;clip-rule:nonzero;display:inline;overflow:visible;visibility:visible;opacity:1;isolation:auto;mix-blend-mode:normal;color-interpolation:sRGB;color-interpolation-filters:linearRGB;solid-color:#000000;solid-opacity:1;fill:#000000;fill-opacity:1;fill-rule:evenodd;stroke:none;stroke-width:0.9113574px;stroke-linecap:butt;stroke-linejoin:miter;stroke-miterlimit:4;stroke-dasharray:none;stroke-dashoffset:0;stroke-opacity:1;color-rendering:auto;image-rendering:auto;shape-rendering:auto;text-rendering:auto;enable-background:accumulate"
       d="m 291.27829,755.1037 129.07324,-481.70959 -0.87975,-0.23618 -129.0732,481.70959 0.87971,0.23618 z"
       id="path3431"
       inkscape:connector-curvature="0" />
    <path
       style="color:#000000;font-style:normal;font-variant:normal;font-weight:normal;font-stretch:normal;font-size:medium;line-height:normal;font-family:sans-serif;text-indent:0;text-align:start;text-decoration:none;text-decoration-line:none;text-decoration-style:solid;text-decoration-color:#000000;letter-spacing:normal;word-spacing:normal;text-transform:none;direction:ltr;block-progression:tb;writing-mode:lr-tb;baseline-shift:baseline;text-anchor:start;white-space:normal;clip-rule:nonzero;display:inline;overflow:visible;visibility:visible;opacity:1;isolation:auto;mix-blend-mode:normal;color-interpolation:sRGB;color-interpolation-filters:linearRGB;solid-color:#000000;solid-opacity:1;fill:#000000;fill-opacity:1;fill-rule:evenodd;stroke:none;stroke-width:0.9113574px;stroke-linecap:butt;stroke-linejoin:miter;stroke-miterlimit:4;stroke-dasharray:none;stroke-dashoffset:0;stroke-opacity:1;color-rendering:auto;image-rendering:auto;shape-rendering:auto;text-rendering:auto;enable-background:accumulate"
       d="m 420.35152,754.86755 -129.07321,-481.7096 -0.87976,0.23616 129.07325,481.70958 0.87972,-0.23614 z"
       id="path3433"
       inkscape:connector-curvature="0" />
    <path
       style="color:#000000;font-style:normal;font-variant:normal;font-weight:normal;font-stretch:normal;font-size:medium;line-height:normal;font-family:sans-serif;text-indent:0;text-align:start;text-decoration:none;text-decoration-line:none;text-decoration-style:solid;text-decoration-color:#000000;letter-spacing:normal;word-spacing:normal;text-transform:none;direction:ltr;block-progression:tb;writing-mode:lr-tb;baseline-shift:baseline;text-anchor:start;white-space:normal;clip-rule:nonzero;display:inline;overflow:visible;visibility:visible;opacity:1;isolation:auto;mix-blend-mode:normal;color-interpolation:sRGB;color-interpolation-filters:linearRGB;solid-color:#000000;solid-opacity:1;fill:#000000;fill-opacity:1;fill-rule:evenodd;stroke:none;stroke-width:0.9113574px;stroke-linecap:butt;stroke-linejoin:miter;stroke-miterlimit:4;stroke-dasharray:none;stroke-dashoffset:0;stroke-opacity:1;color-rendering:auto;image-rendering:auto;shape-rendering:auto;text-rendering:auto;enable-background:accumulate"
       d="m 532.01501,690.12721 -352.63498,-352.63498 -0.64356,0.64358 352.63495,352.63499 0.64359,-0.64359 z"
       id="path3435"
       inkscape:connector-curvature="0" />
    <path
       style="color:#000000;font-style:normal;font-variant:normal;font-weight:normal;font-stretch:normal;font-size:medium;line-height:normal;font-family:sans-serif;text-indent:0;text-align:start;text-decoration:none;text-decoration-line:none;text-decoration-style:solid;text-decoration-color:#000000;letter-spacing:normal;word-spacing:normal;text-transform:none;direction:ltr;block-progression:tb;writing-mode:lr-tb;baseline-shift:baseline;text-anchor:start;white-space:normal;clip-rule:nonzero;display:inline;overflow:visible;visibility:visible;opacity:1;isolation:auto;mix-blend-mode:normal;color-interpolation:sRGB;color-interpolation-filters:linearRGB;solid-color:#000000;solid-opacity:1;fill:#000000;fill-opacity:1;fill-rule:evenodd;stroke:none;stroke-width:0.9113574px;stroke-linecap:butt;stroke-linejoin:miter;stroke-miterlimit:4;stroke-dasharray:none;stroke-dashoffset:0;stroke-opacity:1;color-rendering:auto;image-rendering:auto;shape-rendering:auto;text-rendering:auto;enable-background:accumulate"
       d="m 596.11177,579.10731 0.23614,-0.87974 -481.70959,-129.07323 -0.23613,0.87973 481.70958,129.07324 z"
       id="path3437"
       inkscape:connector-curvature="0" />
    <path
       style="color:#000000;font-style:normal;font-variant:normal;font-weight:normal;font-stretch:normal;font-size:medium;line-height:normal;font-family:sans-serif;text-indent:0;text-align:start;text-decoration:none;text-decoration-line:none;text-decoration-style:solid;text-decoration-color:#000000;letter-spacing:normal;word-spacing:normal;text-transform:none;direction:ltr;block-progression:tb;writing-mode:lr-tb;baseline-shift:baseline;text-anchor:start;white-space:normal;clip-rule:nonzero;display:inline;overflow:visible;visibility:visible;opacity:1;isolation:auto;mix-blend-mode:normal;color-interpolation:sRGB;color-interpolation-filters:linearRGB;solid-color:#000000;solid-opacity:1;fill:#000000;fill-opacity:1;fill-rule:evenodd;stroke:none;stroke-width:0.9113574px;stroke-linecap:butt;stroke-linejoin:miter;stroke-miterlimit:4;stroke-dasharray:none;stroke-dashoffset:0;stroke-opacity:1;color-rendering:auto;image-rendering:auto;shape-rendering:auto;text-rendering:auto;enable-background:accumulate"
       d="m 596.34794,450.03407 -0.23618,-0.87975 -481.70961,129.07324 0.23619,0.87973 481.7096,-129.07322 z"
       id="path3439"
       inkscape:connector-curvature="0" />
    <path
       style="color:#000000;font-style:normal;font-variant:normal;font-weight:normal;font-stretch:normal;font-size:medium;line-height:normal;font-family:sans-serif;text-indent:0;text-align:start;text-decoration:none;text-decoration-line:none;text-decoration-style:solid;text-decoration-color:#000000;letter-spacing:normal;word-spacing:normal;text-transform:none;direction:ltr;block-progression:tb;writing-mode:lr-tb;baseline-shift:baseline;text-anchor:start;white-space:normal;clip-rule:nonzero;display:inline;overflow:visible;visibility:visible;opacity:1;isolation:auto;mix-blend-mode:normal;color-interpolation:sRGB;color-interpolation-filters:linearRGB;solid-color:#000000;solid-opacity:1;fill:#000000;fill-opacity:1;fill-rule:nonzero;stroke:none;stroke-width:0.77628034;stroke-linecap:butt;stroke-linejoin:miter;stroke-miterlimit:4;stroke-dasharray:none;stroke-dashoffset:0;stroke-opacity:1;color-rendering:auto;image-rendering:auto;shape-rendering:auto;text-rendering:auto;enable-background:accumulate"
       d="m 496.6362,655.71238 c 78.10158,-78.10162 78.10161,-204.74111 -10e-6,-282.84272 -78.10162,-78.10162 -204.74109,-78.10161 -282.84269,2e-5 -78.10162,78.10159 -78.10164,204.74108 -2e-5,282.8427 78.10161,78.10159 204.74112,78.10161 282.84272,0 z m -0.54831,-0.54828 c -77.80492,77.80496 -203.93976,77.80357 -281.74473,-0.001 -77.80495,-77.80495 -77.80496,-203.93843 -2e-5,-281.74338 77.80499,-77.80496 203.93982,-77.80634 281.74478,-0.001 77.80495,77.80495 77.80496,203.9412 -2e-5,281.74613 z"
       id="circle3441"
       inkscape:connector-curvature="0" />
    <path
       style="color:#000000;font-style:normal;font-variant:normal;font-weight:normal;font-stretch:normal;font-size:medium;line-height:normal;font-family:sans-serif;text-indent:0;text-align:start;text-decoration:none;text-decoration-line:none;text-decoration-style:solid;text-decoration-color:#000000;letter-spacing:normal;word-spacing:normal;text-transform:none;direction:ltr;block-progression:tb;writing-mode:lr-tb;baseline-shift:baseline;text-anchor:start;white-space:normal;clip-rule:nonzero;display:inline;overflow:visible;visibility:visible;opacity:1;isolation:auto;mix-blend-mode:normal;color-interpolation:sRGB;color-interpolation-filters:linearRGB;solid-color:#000000;solid-opacity:1;fill:#000000;fill-opacity:1;fill-rule:nonzero;stroke:none;stroke-width:0.48517522;stroke-linecap:butt;stroke-linejoin:miter;stroke-miterlimit:4;stroke-dasharray:none;stroke-dashoffset:0;stroke-opacity:1;color-rendering:auto;image-rendering:auto;shape-rendering:auto;text-rendering:auto;enable-background:accumulate"
       d="m 443.60318,602.67936 c 48.81351,-48.81351 48.81351,-127.96319 0,-176.77669 -48.81349,-48.81351 -127.96318,-48.81349 -176.77669,-10e-6 -48.81351,48.81352 -48.81352,127.96321 0,176.7767 48.81351,48.81351 127.96322,48.81352 176.77669,0 z m -0.34249,-0.3425 c -48.6281,48.6281 -127.46223,48.62672 -176.09033,-10e-4 -48.62808,-48.62811 -48.62807,-127.46083 3e-5,-176.08893 48.6281,-48.6281 127.46221,-48.62948 176.09029,-0.001 48.6281,48.6281 48.62809,127.4636 2e-5,176.09171 z"
       id="circle3443"
       inkscape:connector-curvature="0" />
    <path
       style="fill:#ff0000;fill-opacity:1;stroke:#ff0000;stroke-width:0.45213166;stroke-opacity:0.95294118"
       d="m 511.6893,556.72817 c 33.81796,9.06278 35.49975,9.56649 35.34693,10.58658 -0.0882,0.58907 -1.48926,5.06526 -3.11344,9.94712 -8.45055,25.40068 -21.24071,47.71819 -39.13479,68.28619 -2.37242,2.72694 -5.2112,5.8586 -6.30846,6.95933 l -1.99531,2.001 -26.02618,-26.02616 -26.02611,-26.02614 2.91316,-3.32107 c 12.99398,-14.81326 20.61563,-27.71777 26.36005,-44.63133 l 2.47642,-7.29139 35.5074,9.51554 z"
       id="path4330"
       inkscape:connector-curvature="0" />
    <path
       style="opacity:1;fill:#ffff00;fill-opacity:1;stroke:none;stroke-width:0.45213166;stroke-opacity:1"
       d="m 198.75374,556.78556 c 19.42326,-5.19404 35.41982,-9.33198 35.54788,-9.1954 0.12808,0.13664 1.0817,2.85234 2.11918,6.03497 3.42806,10.51632 8.52718,21.02582 14.62208,30.13666 3.3516,5.01003 9.56255,12.81404 12.68057,15.93307 l 2.47733,2.4781 -26.10356,26.10356 -26.10354,26.10357 -5.64444,-6.02485 c -15.25269,-16.28077 -28.60592,-37.2407 -37.26252,-58.48923 -2.60389,-6.39153 -8.21107,-23.13718 -7.85356,-23.45436 0.11309,-0.10028 16.0973,-4.43202 35.52058,-9.62609 z"
       id="path4358"
       inkscape:connector-curvature="0" />
    <path
       style="opacity:1;fill:#0000ff;fill-opacity:1;stroke:#0000ff;stroke-width:0.45213166;stroke-opacity:1"
       d="m 310.63895,320.35695 c 27.04249,-6.18163 56.02524,-6.65494 82.71233,-1.35069 8.6553,1.7203 12.69153,2.77816 12.65787,3.3175 -0.0169,0.27116 -4.29189,16.35643 -9.49997,35.74501 -5.43862,20.24699 -9.67847,35.1473 -9.96088,35.0061 -1.06295,-0.53148 -13.30013,-2.79186 -17.91833,-3.30975 -6.72053,-0.75368 -20.42358,-0.70653 -27.3279,0.094 -3.15135,0.36541 -8.40367,1.21409 -11.67181,1.88597 -5.92877,1.21887 -5.9429,1.21875 -6.33756,-0.052 -1.45604,-4.68795 -18.56512,-69.42574 -18.42243,-69.70707 0.098,-0.19314 2.69389,-0.92617 5.76869,-1.62904 z"
       id="path4360"
       inkscape:connector-curvature="0" />
    <path
       style="opacity:1;fill:#ff6600;fill-opacity:1;stroke:#ff6600;stroke-width:0.45213166;stroke-opacity:1"
       d="m 330.93465,637.03865 c 16.57889,3.26618 33.01795,3.20937 49.69613,-0.1717 5.98302,-1.21291 6.51173,-1.23557 6.80332,-0.29162 0.85161,2.75695 18.58309,69.15167 18.59365,69.62316 0.0249,1.11498 -16.40884,4.43148 -28.82227,5.81665 -22.25451,2.48328 -46.16403,1.08027 -67.31012,-3.94975 l -5.45205,-1.29685 9.4533,-35.31437 c 5.19934,-19.42289 9.50942,-35.43727 9.57796,-35.5875 0.0685,-0.1503 3.4256,0.37714 7.46008,1.17198 z"
       id="path4362"
       inkscape:connector-curvature="0"
       inkscape:export-xdpi="155"
       inkscape:export-ydpi="155" />
    <path
       style="opacity:1;fill:#00d400;fill-opacity:1;stroke:#00d400;stroke-width:0.45213166;stroke-opacity:1"
       d="m 240.38329,399.87809 26.00674,26.00675 -3.9536,4.37513 c -11.88107,13.14786 -21.02463,28.8959 -26.23516,45.18514 -1.23222,3.85222 -1.92769,5.41382 -2.38624,5.35796 -2.37101,-0.28875 -70.10473,-18.81593 -70.28354,-19.22461 -0.3293,-0.75258 3.97152,-13.91258 7.038,-21.53552 4.83961,-12.03066 11.56226,-24.84853 18.63377,-35.52816 6.13828,-9.27028 15.36694,-20.81822 21.73976,-27.20329 l 3.43332,-3.44037 26.00671,26.00674 z"
       id="path4364"
       inkscape:connector-curvature="0" />
    <path
       style="opacity:1;fill:#ff00ff;fill-opacity:1;stroke:#ff00ff;stroke-width:0.45213166;stroke-opacity:1"
       d="m 497.71429,375.23124 c 0.74668,0.74791 3.51403,3.80721 6.14968,6.7984 16.66903,18.91784 28.55151,38.46382 37.31205,61.37632 2.43698,6.37367 5.3869,15.46401 5.72339,17.63688 0.1515,0.97815 -1.90758,1.59499 -35.07798,10.50825 -19.38141,5.208 -35.34316,9.4824 -35.47061,9.49863 -0.1274,0.0163 -1.1187,-2.61058 -2.20281,-5.83735 -2.30028,-6.8463 -3.4311,-9.63165 -6.41758,-15.80722 -4.42542,-9.15111 -11.18727,-19.41512 -17.31913,-26.28945 -1.70753,-1.91429 -3.78322,-4.31253 -4.61261,-5.32946 l -1.50797,-1.84891 26.03297,-26.03301 26.03298,-26.03295 1.35733,1.36015 z"
       id="path4366"
       inkscape:connector-curvature="0" />
    <path
       style="opacity:1;fill:#000000;fill-opacity:0;stroke:none;stroke-width:0.45213166;stroke-opacity:1"
       d="m 330.614,636.90037 c 10.08064,1.81716 15.57343,2.33317 24.70985,2.32133 9.30833,-0.012 15.07053,-0.55411 24.494,-2.30426 3.51516,-0.65282 6.65294,-1.07043 6.9728,-0.92799 0.68155,0.30354 1.18371,2.07385 10.5705,37.26877 9.00529,33.76441 8.82452,33.05684 8.52267,33.35874 -0.78631,0.7863 -14.50414,3.57037 -23.97845,4.86647 -18.85668,2.57967 -40.59535,2.23165 -60.22831,-0.96416 -4.22467,-0.68769 -17.2885,-3.56643 -17.27208,-3.80608 0.0148,-0.2158 9.5882,-35.97159 14.56255,-54.38994 2.36259,-8.74762 4.45631,-16.06551 4.65278,-16.26194 0.19646,-0.19645 3.34363,0.18109 6.99369,0.83906 z"
       id="path4368"
       inkscape:connector-curvature="0" />
    <path
       style="opacity:1;fill:#ff5400;fill-opacity:1;stroke:#ff00ff;stroke-width:0.45213166;stroke-opacity:1"
       d="m 394.68937,633.05222 c 15.40416,-4.94511 29.94297,-13.30017 43.25655,-24.85835 l 5.75601,-4.9971 25.99169,25.99167 25.99167,25.99166 -2.81343,2.81346 c -14.49309,14.49308 -37.47152,29.83593 -57.80426,38.59627 -10.99312,4.73637 -26.64745,10.07726 -27.38248,9.34223 -0.39472,-0.39473 -19.29552,-70.66166 -19.05763,-70.84988 0.0982,-0.0777 2.82605,-0.99113 6.06188,-2.02996 z"
       id="path4370"
       inkscape:connector-curvature="0" />
    <path
       style="opacity:1;fill:#ffe200;fill-opacity:1;stroke:#ff00ff;stroke-width:0.45213166;stroke-opacity:1"
       d="m 271.59792,607.35806 c 12.89051,11.74578 29.38928,21.19874 45.98551,26.3474 2.57509,0.79888 4.61554,1.61553 4.53433,1.81481 -0.0812,0.19926 -4.35224,16.1553 -9.49116,35.45789 -6.67684,25.07942 -9.54751,35.12156 -10.05844,35.18663 -1.10096,0.14018 -20.2329,-6.48496 -25.99662,-9.0023 -21.00598,-9.17451 -39.70245,-21.32553 -55.70076,-36.20052 l -6.04727,-5.62266 26.0871,-26.08645 26.0871,-26.0865 4.60021,4.1917 z"
       id="path4372"
       inkscape:connector-curvature="0" />
    <path
       style="opacity:1;fill:#b7ff46;fill-opacity:1;stroke:#b7ff46;stroke-width:0.45213166;stroke-opacity:1"
       d="m 198.15079,472.70444 c 19.43189,5.20832 35.43309,9.57207 35.55824,9.6972 0.12514,0.12514 -0.35776,3.09506 -1.07312,6.59981 -3.76491,18.44543 -3.38447,36.76199 1.16638,56.15568 0.16778,0.71507 -4.93981,2.21008 -35.44399,10.37462 l -35.64001,9.53916 -1.02774,-4.35428 c -7.14844,-30.287 -7.20547,-62.32402 -0.16382,-92.02632 l 1.29337,-5.45554 35.33069,9.46967 z"
       id="path4374"
       inkscape:connector-curvature="0" />
    <path
       style="opacity:1;fill:#ff3d01;fill-opacity:1;stroke:none;stroke-width:0.45213166;stroke-opacity:1"
       d="m 396.20751,632.87592 c 15.08337,-5.12959 27.99926,-12.59624 41.60968,-24.05454 2.19574,-1.8485 4.38913,-3.75537 4.87419,-4.23742 l 0.88201,-0.87638 25.78575,25.78578 25.78579,25.78576 -5.86838,5.48116 c -15.82094,14.77711 -37.68834,28.68258 -58.33613,37.09592 -6.95367,2.8334 -19.80481,7.27395 -21.75736,7.51798 l -1.29866,0.16233 -5.05856,-18.58007 c -6.23791,-22.91169 -13.6629,-50.76023 -13.6741,-51.28661 -0.005,-0.2153 3.17057,-1.47253 7.05585,-2.79385 z"
       id="path4376"
       inkscape:connector-curvature="0"
       inkscape:export-xdpi="155"
       inkscape:export-ydpi="155" />
    <path
       style="opacity:1;fill:none;fill-opacity:1;stroke:#ff6200;stroke-width:0.45213166;stroke-opacity:1"
       d="m 138.18499,573.03668 c 12.71625,-3.411 23.24606,-6.20184 23.39959,-6.20182 0.15349,-6e-5 1.41572,3.5741 2.80494,7.9425 5.94112,18.68188 14.29969,35.87883 25.38306,52.22333 5.77535,8.51685 14.89736,19.7836 20.78196,25.6682 l 2.83094,2.83091 -17.26408,17.26409 -17.2641,17.2641 -0.87638,-0.88202 c -2.24569,-2.26056 -12.69966,-14.03365 -15.26213,-17.18794 -19.75584,-24.31887 -33.59781,-49.49369 -43.44045,-79.00672 -2.15484,-6.46122 -3.98449,-12.18982 -4.06591,-12.73019 -0.136,-0.90297 1.72481,-1.4849 22.97248,-7.18437 l 0,-2e-5 z"
       id="path4378"
       inkscape:connector-curvature="0" />
    <path
       style="opacity:1;fill:#2affd4;fill-opacity:1;stroke:#2affd4;stroke-width:0.45213166;stroke-opacity:1"
       d="m 223.503,365.0943 c 0.67284,-0.55801 3.18012,-2.65454 5.57168,-4.65887 14.4059,-12.07312 33.5015,-23.37321 52.22097,-30.90247 7.77493,-3.1272 21.58631,-7.57409 21.91951,-7.05749 0.20973,0.32526 18.97669,70.20947 18.97669,70.66535 0,0.1312 -2.34789,0.99922 -5.21753,1.92896 -16.95374,5.49295 -32.057,14.19014 -45.66939,26.29865 l -3.97618,3.53689 -26.01249,-26.01253 -26.01255,-26.01251 3.488,-3.38564 c 1.91842,-1.86212 4.0385,-3.84226 4.71135,-4.40031 z"
       id="path4380"
       inkscape:connector-curvature="0" />
    <path
       style="opacity:1;fill:#0007ff;fill-opacity:1;stroke:#002aff;stroke-width:0.45213166;stroke-opacity:1"
       d="m 310.82846,320.3213 c 24.72551,-5.69688 53.03417,-6.5249 77.59997,-2.26976 7.21652,1.25 16.51697,3.41258 17.07468,3.97033 0.30232,0.30229 0.22791,1.66988 -0.17315,3.18368 -9.87075,37.25501 -18.05179,66.88404 -18.62637,67.45862 -0.15644,0.15638 -2.87883,-0.21432 -6.0498,-0.82388 -10.38164,-1.99569 -14.57116,-2.39075 -25.31559,-2.38716 -9.85801,0.003 -16.47441,0.63185 -26.85879,2.55144 -1.90229,0.35166 -3.83767,0.55036 -4.30078,0.44159 -0.93863,-0.22044 -1.39506,-1.82452 -12.37554,-43.49217 -6.85007,-25.99396 -6.97994,-26.53841 -6.46223,-27.08675 0.18666,-0.19807 2.65629,-0.89359 5.4876,-1.54594 z"
       id="path4382"
       inkscape:connector-curvature="0" />
    <path
       style="opacity:1;fill:#b600ff;fill-opacity:1;stroke:#002aff;stroke-width:0.45213166;stroke-opacity:1"
       d="m 414.39338,324.29875 c 22.61199,6.96181 43.8732,18.06559 63.05425,32.93043 4.31139,3.34121 13.83556,11.57527 16.71793,14.45333 l 1.52001,1.51718 -26.03296,26.03299 -26.03298,26.03298 -1.84814,-1.50879 c -1.01646,-0.82984 -3.37001,-2.86425 -5.2301,-4.52092 -11.36445,-10.12167 -25.64511,-18.23163 -41.71773,-23.69145 -3.49028,-1.18564 -6.33885,-2.25521 -6.33012,-2.37682 0.009,-0.12161 4.28722,-16.14497 9.50779,-35.60741 l 9.492,-35.38628 6.90032,2.12449 z"
       id="path4384"
       inkscape:connector-curvature="0" />
    <path
       style="opacity:1;fill:#ff0075;fill-opacity:1;stroke:#002aff;stroke-width:0.45213166;stroke-opacity:1"
       d="m 509.63026,473.46537 c 17.92045,-4.76265 33.7721,-8.98521 35.22591,-9.38347 l 2.64331,-0.72412 0.50243,1.56423 c 0.96864,3.01587 3.08159,13.76989 4.11938,20.9661 3.10288,21.51554 2.62801,44.12969 -1.36809,65.14664 -1.77003,9.30952 -2.90843,13.80209 -3.48803,13.76553 -0.27101,-0.0171 -16.35581,-4.29295 -35.74401,-9.50194 -21.19847,-5.69535 -35.14965,-9.67408 -34.99639,-9.98057 0.50003,-1.00007 2.64538,-12.55426 3.06883,-16.52773 1.55517,-14.59331 0.73612,-29.42556 -2.33813,-42.3415 -0.48745,-2.04787 -0.73363,-3.85848 -0.54706,-4.02359 0.18654,-0.16509 15.0014,-4.19692 32.92185,-8.95958 z"
       id="path4386"
       inkscape:connector-curvature="0" />
    <path
       style="opacity:1;fill:#e29c86;fill-opacity:1;stroke:none;stroke-width:0.45213166;stroke-opacity:1"
       d="m 409.1936,707.08885 c 1.26628,-0.0242 14.91584,-4.67827 21.19503,-7.22679 22.44467,-9.10953 42.39266,-21.84686 61.55962,-39.30739 l 4.76805,-4.34356 17.11859,17.11859 17.11858,17.11858 -6.6792,6.26887 c -22.11201,20.75364 -48.55203,37.48182 -77.18983,48.8368 -6.85615,2.71849 -18.23656,6.58346 -23.78308,8.07715 l -2.8591,0.76993 -6.25279,-23.30945 c -3.43904,-12.82019 -6.10409,-23.46285 -5.92233,-23.65036 0.18174,-0.18761 0.59861,-0.34611 0.92646,-0.35237 z"
       id="path4388"
       inkscape:connector-curvature="0"
       inkscape:export-xdpi="155"
       inkscape:export-ydpi="155" />
    <path
       style="opacity:1;fill:#763c2a;fill-opacity:1;stroke:none;stroke-width:0.45213166;stroke-opacity:1"
       d="m 399.89353,559.39911 43.13122,43.11993 -4.13983,3.69292 c -8.75955,7.81388 -17.18604,13.65759 -26.71305,18.52528 -9.09231,4.64561 -23.22263,9.89351 -23.90312,8.87747 -0.27322,-0.40804 -30.31728,-112.05535 -31.15351,-115.77031 -0.34711,-1.54213 0.29866,-0.91487 42.77853,41.55442 z"
       id="path4390"
       inkscape:connector-curvature="0"
       inkscape:export-xdpi="155"
       inkscape:export-ydpi="155" />
    <path
       style="opacity:1;fill:#e2ab86;fill-opacity:1;stroke:none;stroke-width:0.45213166;stroke-opacity:1"
       d="m 305.71716,708.34192 c 0.8639,0.25177 4.83004,1.12744 8.81356,1.94589 14.40645,2.95992 25.40483,4.06638 40.48923,4.07328 15.64063,0.007 26.98205,-1.1581 41.61742,-4.27596 4.4279,-0.94331 8.49402,-1.78026 9.03579,-1.8599 0.90587,-0.13316 1.48749,1.73054 7.23234,23.17538 l 6.24718,23.32015 -2.77815,0.7808 c -9.41755,2.64673 -29.58697,5.91683 -42.67717,6.91934 -14.7906,1.13273 -34.74445,0.57502 -50.6555,-1.41579 -9.45337,-1.18281 -31.48001,-5.59691 -31.42003,-6.29648 0.008,-0.097 2.78475,-10.49878 6.16982,-23.11498 3.3851,-12.61617 6.1997,-23.11198 6.25468,-23.32402 0.055,-0.21205 0.80684,-0.17952 1.6708,0.0723 z"
       id="path4392"
       inkscape:connector-curvature="0"
       inkscape:export-xdpi="155"
       inkscape:export-ydpi="155" />
    <path
       style="opacity:1;fill:#76482a;fill-opacity:1;stroke:none;stroke-width:0.45213166;stroke-opacity:1"
       d="m 355.54309,517.67006 c 0.67688,1.43369 31.2628,116.58908 31.02889,116.823 -0.15491,0.15491 -2.98262,0.83419 -6.2838,1.50954 -12.10146,2.47567 -26.20279,3.16211 -38.24224,1.86156 -5.77032,-0.62332 -17.38033,-2.79347 -17.91661,-3.34897 -0.15152,-0.15724 6.36124,-25.04996 14.47313,-55.31746 16.89861,-63.05291 16.64882,-62.14573 16.94063,-61.52767 z"
       id="path4394"
       inkscape:connector-curvature="0"
       inkscape:export-xdpi="155"
       inkscape:export-ydpi="155" />
    <path
       style="opacity:1;fill:#ffe601;fill-opacity:1;stroke:none;stroke-width:0.45213166;stroke-opacity:1"
       d="m 216.85579,658.97014 c 5.88459,5.88458 17.15139,15.00661 25.66817,20.78195 16.34452,11.08339 33.54148,19.44196 52.22338,25.38309 4.36835,1.38919 7.9425,2.6205 7.9425,2.7362 -6e-5,0.1157 -2.79279,10.64361 -6.20616,23.3953 -5.68883,21.2523 -6.28767,23.17288 -7.18438,23.04117 -0.53801,-0.079 -6.26469,-1.90666 -12.72602,-4.0614 -29.48125,-9.83149 -54.71103,-23.70373 -79.00655,-43.44061 -3.15431,-2.56246 -14.92739,-13.01646 -17.18797,-15.26214 l -0.88199,-0.87637 17.26406,-17.26409 17.2641,-17.26409 2.83092,2.83092 z"
       id="path4396"
       inkscape:connector-curvature="0" />
    <path
       inkscape:connector-curvature="0"
       style="opacity:1;fill:#ffc601;fill-opacity:1;stroke:none;stroke-opacity:1"
       d="m 302.27436,705.36314 c 0.008,-0.007 0.0188,-0.0366 0.0262,-0.0456 0.0652,-0.0795 0.14272,-0.20859 0.22747,-0.38 0.002,-0.005 0.005,-0.007 0.007,-0.0122 0.0874,-0.17716 0.20612,-0.49499 0.31901,-0.78585 0.0222,-0.0587 0.0459,-0.12487 0.069,-0.18788 0.6727,-1.78617 2.02203,-6.41615 4.09349,-13.89906 0.15376,-0.56147 0.26913,-0.96033 0.43088,-1.5551 0.0191,-0.0706 0.0579,-0.21846 0.0774,-0.29002 1.92667,-7.00019 4.33118,-15.87297 8.01847,-29.65706 3.30283,-12.34677 6.00697,-22.56542 6.00765,-22.70751 0,-6.2e-4 -0.007,-0.005 -0.009,-0.005 0,0 0.001,-0.002 0.001,-0.002 6.2e-4,-0.0129 -0.15781,-0.0808 -0.21675,-0.11476 -0.0906,-0.0522 -0.12789,-0.0863 -0.32734,-0.17535 -0.007,-0.003 -0.0202,-0.008 -0.0276,-0.0113 -1.01424,-0.45159 -3.27443,-1.32058 -5.9068,-2.25805 -17.13244,-6.10131 -30.73783,-14.12775 -44.24529,-26.09805 l -3.49687,-3.09636 -0.31624,-0.28315 -7.5e-4,6.7e-4 -25.76939,25.76934 -0.0732,0.0732 -25.70035,25.69751 6.7e-4,7.6e-4 -0.14368,0.14369 1.0151,0.74163 c 0.17573,0.12858 0.83698,0.7178 1.37,1.18496 l 3.4071,3.14466 c 1.89607,1.75067 3.89668,3.51455 5.94273,5.25775 1.86101,1.59995 3.77922,3.17655 5.74801,4.72878 0.4052,0.32182 0.80859,0.64269 1.21397,0.95983 0.13808,0.10695 0.27581,0.21373 0.41432,0.32039 2.29197,1.78388 4.5799,3.49325 6.79761,5.063 1.79521,1.27066 3.82212,2.60066 5.93169,3.94295 9.25981,6.02169 19.15208,11.3827 29.14884,15.7331 0.76965,0.3349 1.74254,0.73105 2.84635,1.16149 0.0181,0.007 0.0276,0.0113 0.0454,0.0181 0.78239,0.31963 1.54118,0.62002 2.27183,0.89631 5.73786,2.16996 12.91445,4.58878 17.1667,5.85576 0.2428,0.0739 0.42629,0.12458 0.6491,0.19055 0.43588,0.12651 0.82967,0.23809 1.17943,0.3315 0.75457,0.20517 1.37251,0.35675 1.60895,0.36597 0.0697,0.003 0.164,0.0156 0.18089,-9.8e-4 0.003,-0.004 0.007,-0.0133 0.0108,-0.0167 6.8e-4,-5.8e-4 0.005,6e-4 0.006,10e-5 z"
       id="path4398"
       inkscape:export-xdpi="155"
       inkscape:export-ydpi="155" />
    <path
       style="opacity:1;fill:#e2cd86;fill-opacity:1;stroke:none;stroke-opacity:1"
       d="m 219.95305,661.8803 c 15.49828,14.52729 34.83982,27.14164 55.43891,36.15667 2.93545,1.28469 10.22154,4.01452 16.19137,6.06635 8.967,3.08194 10.82576,3.86473 10.69076,4.50218 -0.33486,1.58081 -9.91017,37.24752 -10.97323,40.87371 -0.60772,2.07312 -1.31743,3.98176 -1.57707,4.24142 -0.49392,0.49392 -12.34549,-3.15257 -21.88953,-6.73498 -29.83548,-11.19893 -56.35797,-27.41155 -79.85619,-48.81436 -2.30056,-2.0954 -5.16145,-4.62953 -6.35753,-5.63141 l -2.17476,-1.82159 17.24197,-17.24197 17.24196,-17.24195 6.02334,5.64593 z"
       id="path4403"
       inkscape:connector-curvature="0"
       inkscape:export-xdpi="155"
       inkscape:export-ydpi="155" />
    <path
       style="opacity:1;fill:#76652a;fill-opacity:1;stroke:none;stroke-opacity:1"
       d="m 353.8384,516.88191 c -0.0318,0.72354 -30.89518,115.81306 -31.30289,116.72841 -0.57777,1.29737 -16.47721,-4.66475 -25.95211,-9.7318 -9.16338,-4.90044 -20.26314,-12.86744 -26.21008,-18.81263 l -2.63796,-2.63718 43.06432,-43.06431 c 24.43638,-24.43639 43.05326,-42.81263 43.03872,-42.48249 z"
       id="path4405"
       inkscape:connector-curvature="0"
       inkscape:export-xdpi="155"
       inkscape:export-ydpi="155" />
    <path
       style="opacity:1;fill:#e2e186;fill-opacity:1;stroke:none;stroke-opacity:1"
       d="m 119.41033,578.68326 c 3.2208,-0.98773 17.37204,-4.83911 35.22608,-9.58704 3.54193,-0.94192 6.55813,-1.59436 6.70259,-1.44987 0.14452,0.14451 1.24923,3.22868 2.45501,6.8538 9.82351,29.53411 24.15127,54.16353 44.27388,76.10689 l 4.57834,4.9926 -16.89446,16.89447 -16.89447,16.89446 -1.35735,-1.36016 c -2.10267,-2.10695 -10.93245,-12.12786 -14.30162,-16.23026 -17.90462,-21.8016 -31.26042,-45.28492 -41.26296,-72.55213 -2.56168,-6.98326 -6.46626,-19.11017 -6.22927,-19.34711 0.0631,-0.0631 1.73,-0.61018 3.70414,-1.21559 l -1.2e-4,1.2e-4 z"
       id="path4407"
       inkscape:connector-curvature="0" />
    <path
       style="opacity:1;fill:#76762a;fill-opacity:1;stroke:none;stroke-opacity:1"
       d="m 293.84387,531.31287 c 32.01273,-8.5872 58.46951,-15.62189 58.79285,-15.63263 0.3431,-0.0114 -17.34282,17.91115 -42.47646,43.04475 l -43.06429,43.06432 -2.63727,-2.6379 c -8.27862,-8.28148 -17.86745,-22.88316 -23.33936,-35.54202 -2.12012,-4.905 -5.99852,-16.16541 -5.67805,-16.48585 0.10872,-0.10873 26.38983,-7.22348 58.40258,-15.81067 z"
       id="path4409"
       inkscape:connector-curvature="0" />
    <path
       style="opacity:1;fill:#c4ff00;fill-opacity:1;stroke:none;stroke-opacity:1"
       d="m 137.84868,456.56951 c 12.67742,3.41176 23.21278,6.25376 23.41189,6.3156 0.19921,0.0618 0.0898,1.17814 -0.24277,2.48074 -1.09157,4.27403 -3.28363,15.50385 -3.94242,20.19652 -3.50448,24.96287 -2.34791,51.08447 3.32381,75.06883 l 1.13288,4.79059 -1.61107,0.39703 c -0.88602,0.21835 -11.35843,3.02221 -23.27195,6.23078 -11.91348,3.20856 -21.73934,5.84153 -21.83518,5.85106 -0.31345,0.0311 -2.5045,-9.43346 -4.02418,-17.38301 -2.93642,-15.36068 -4.18334,-28.89052 -4.2125,-45.70876 -0.0284,-16.37424 1.04016,-29.08615 3.71895,-44.24296 1.0432,-5.90245 4.07533,-19.77223 4.39167,-20.08855 0.0612,-0.0612 10.48343,2.68039 23.16087,6.09213 z"
       id="path4411"
       inkscape:connector-curvature="0" />
    <path
       style="opacity:1;fill:#c0ff00;fill-opacity:1;stroke:none;stroke-opacity:1"
       d="m 191.66192,470.86266 c 38.94749,10.47588 41.58628,11.22694 41.89708,11.9247 0.14826,0.33278 -0.22936,3.21787 -0.839,6.41128 -3.32855,17.43521 -3.24458,34.64611 0.25027,51.28999 0.84186,4.00927 0.87618,4.93571 0.197,5.3123 -0.45249,0.25085 -4.29125,1.44748 -8.53064,2.65907 -7.47365,2.13591 -61.40509,16.66976 -61.85728,16.66977 -0.64927,0 -4.24524,-18.90661 -5.21338,-27.41048 -1.84202,-16.18004 -1.65472,-35.0418 0.50662,-51.02776 0.63417,-4.6905 3.66153,-20.12922 4.41919,-22.53674 0.31522,-1.00158 1.64227,-0.69644 29.17014,6.70787 z"
       id="path4413"
       inkscape:connector-curvature="0"
       inkscape:export-xdpi="155"
       inkscape:export-ydpi="155" />
    <path
       style="opacity:1;fill:#cce286;fill-opacity:1;stroke:none;stroke-opacity:1"
       d="m 117.75073,451.41077 c 30.91946,8.25497 42.42191,11.35697 42.89674,11.56846 0.37088,0.16515 -0.14792,3.85381 -1.44313,10.26102 -3.27922,16.22121 -4.30353,26.97135 -4.13653,43.41189 0.14672,14.44137 1.47529,26.65858 4.35543,40.05161 0.77211,3.59036 1.48173,6.99704 1.57693,7.57037 0.16358,0.98487 -1.09232,1.38138 -22.74472,7.18083 -12.60483,3.37613 -23.00878,6.13952 -23.11988,6.14085 -0.43965,0.005 -1.48662,-4.14933 -3.3469,-13.28154 -3.70842,-18.20465 -4.90566,-30.54481 -4.89328,-50.43536 0.009,-14.19906 0.61684,-23.41877 2.31415,-35.09267 1.39665,-9.60612 4.94754,-27.13874 5.6358,-27.827 0.14071,-0.14071 1.44811,0.0625 2.90539,0.45154 z"
       id="path4415"
       inkscape:connector-curvature="0"
       inkscape:export-xdpi="155"
       inkscape:export-ydpi="155" />
    <path
       style="opacity:1;fill:#63762a;fill-opacity:1;stroke:none;stroke-opacity:1"
       d="m 293.62369,498.28414 c 32.06542,8.59251 58.30075,15.72608 58.30076,15.85231 0,0.37934 -116.60146,31.55285 -116.91283,31.25675 -0.56281,-0.53508 -2.72964,-12.16089 -3.37587,-18.11245 -0.83309,-7.67269 -0.81902,-18.67884 0.0336,-26.28009 0.68538,-6.11007 2.79261,-17.47825 3.34158,-18.02723 0.1716,-0.17159 26.54738,6.7182 58.61278,15.31071 z"
       id="path4417"
       inkscape:connector-curvature="0"
       inkscape:export-xdpi="155"
       inkscape:export-ydpi="155" />
    <path
       style="opacity:1;fill:#22ff00;fill-opacity:1;stroke:none;stroke-opacity:1"
       d="m 196.19016,355.68499 17.11341,17.11342 -4.65377,5.09722 c -21.64813,23.71094 -37.01217,50.71899 -45.67993,80.29958 -0.5399,1.8425 -1.08723,3.34273 -1.2163,3.33385 -0.129,-0.009 -10.67222,-2.81438 -23.42921,-6.23445 l -23.19453,-6.21837 0.45198,-1.89203 c 0.83546,-3.49719 5.28334,-16.80586 7.71698,-23.0903 11.26678,-29.09434 28.39169,-56.39981 49.34791,-78.68463 l 6.43006,-6.83771 17.1134,17.11342 z"
       id="path4419"
       inkscape:connector-curvature="0" />
    <path
       style="opacity:1;fill:#1aff00;fill-opacity:1;stroke:none;stroke-opacity:1"
       d="m 240.36209,399.85689 26.09447,26.09447 -0.89521,0.89521 c -5.54487,5.54484 -14.6661,17.86095 -19.23456,25.97171 -1.64726,2.92453 -3.10077,5.49929 -3.23008,5.72167 -0.12931,0.22235 -0.4064,0.8085 -0.61577,1.30244 -1.09176,2.57566 -2.3622,5.38522 -2.58834,5.72402 -0.1409,0.21082 -1.15161,2.9406 -2.24635,6.06601 -1.09472,3.12537 -2.32504,6.4773 -2.73407,7.44874 -0.72574,1.72358 -0.77367,1.76057 -1.98516,1.5316 -3.7205,-0.70315 -58.4534,-15.64534 -64.94181,-17.72922 -3.31531,-1.0648 -4.24805,-1.53525 -4.30727,-2.17246 -0.10646,-1.14557 5.36098,-17.26079 7.89843,-23.28062 8.9134,-21.14589 22.07424,-41.55879 37.36896,-57.96051 l 5.32232,-5.70749 26.09447,26.09446 z"
       id="path4421"
       inkscape:connector-curvature="0"
       inkscape:export-xdpi="155"
       inkscape:export-ydpi="155" />
    <path
       style="opacity:1;fill:#8de286;fill-opacity:1;stroke:none;stroke-opacity:1"
       d="m 196.10178,355.59659 16.92482,16.92479 -1.19251,1.52501 c -0.65587,0.83875 -2.90715,3.40703 -5.00284,5.70729 -11.68704,12.82771 -22.6582,28.87719 -30.79606,45.05092 -4.84327,9.6258 -7.73267,16.63592 -11.40586,27.67233 -1.60145,4.81174 -3.03151,8.74445 -3.17785,8.73938 -0.1464,-0.005 -10.55656,-2.75922 -23.13376,-6.12032 -21.55755,-5.76104 -22.86026,-6.17134 -22.73942,-7.16204 0.2686,-2.20191 7.99821,-24.29894 10.74496,-30.717 9.12365,-21.31871 20.41502,-40.20529 34.80962,-58.22462 3.12898,-3.91691 14.42553,-16.6971 17.32525,-19.60072 l 0.71888,-0.71982 16.92477,16.9248 z"
       id="path4423"
       inkscape:connector-curvature="0"
       inkscape:export-xdpi="155"
       inkscape:export-ydpi="155" />
    <path
       style="opacity:1;fill:#31762a;fill-opacity:1;stroke:none;stroke-opacity:1"
       d="m 310.12417,469.62975 c 42.40436,42.41424 43.09562,43.12645 41.55854,42.77721 -3.79691,-0.86273 -115.43159,-30.91172 -115.81209,-31.1734 -0.23356,-0.1606 0.33943,-2.69302 1.2733,-5.62758 5.09215,-16.00111 14.15886,-31.62777 26.00117,-44.81359 l 3.85741,-4.29505 43.12138,43.13268 z"
       id="path4425"
       inkscape:connector-curvature="0"
       inkscape:export-xdpi="155"
       inkscape:export-ydpi="155" />
    <path
       style="opacity:1;fill:#00ffd2;fill-opacity:1;stroke:none;stroke-opacity:1"
       d="m 192.96891,325.60845 c 18.79127,-16.18291 41.10466,-30.07603 64.57691,-40.20786 6.25568,-2.70027 26.92846,-9.94584 31.1626,-10.92213 l 1.66019,-0.38279 5.99476,22.32991 c 3.29706,12.2815 6.11262,22.85127 6.25662,23.48847 l 0.26196,1.1585 -2.64378,0.68252 c -4.06888,1.05043 -13.26905,4.17539 -18.79692,6.38459 -23.10269,9.23305 -43.09098,21.84672 -62.39315,39.37345 l -4.77541,4.33614 -17.06828,-17.06829 -17.06831,-17.06828 4.44098,-4.35089 c 2.44253,-2.39304 6.2189,-5.882 8.39184,-7.75333 z"
       id="path4427"
       inkscape:connector-curvature="0" />
    <path
       style="opacity:1;fill:#00ffd8;fill-opacity:1;stroke:none;stroke-opacity:1"
       d="m 228.27915,360.91871 c 18.63536,-15.28648 40.0096,-27.23561 62.35865,-34.86121 8.30983,-2.83535 12.09284,-3.86298 12.54738,-3.40845 0.38372,0.38369 18.92681,68.8783 18.99922,70.17939 0.0158,0.28406 -3.32842,1.71912 -7.43163,3.189 -12.76731,4.57354 -21.79002,9.18859 -31.66273,16.19537 -4.59411,3.26048 -12.62604,9.7311 -14.89253,11.99759 l -0.78183,0.78183 -26.05599,-26.05598 -26.05598,-26.05597 4.11667,-4.03581 c 2.26415,-2.21974 6.25062,-5.78628 8.85878,-7.92577 z"
       id="path4429"
       inkscape:connector-curvature="0"
       inkscape:export-xdpi="155"
       inkscape:export-ydpi="155" />
    <path
       style="opacity:1;fill:#00ffd2;fill-opacity:1;stroke:none;stroke-opacity:1"
       d="m 189.26596,329.25872 c 18.11891,-16.70009 43.40088,-32.92373 67.48529,-43.30585 8.64425,-3.72629 32.83368,-12.0717 33.38687,-11.51852 0.32567,0.32571 12.20953,44.76766 12.23888,45.76978 0.0191,0.65256 -0.6793,0.99797 -3.69653,1.82834 -12.57374,3.46033 -30.3011,11.06406 -43.39084,18.61144 -12.42518,7.16444 -29.7138,20.04599 -37.92813,28.26031 -1.10303,1.10304 -2.3204,2.14576 -2.70528,2.31716 -0.62593,0.2787 -2.48495,-1.4736 -17.60993,-16.59853 l -16.91019,-16.91017 1.57035,-1.46683 c 0.86365,-0.80682 4.26549,-3.95097 7.55953,-6.98709 z"
       id="path4431"
       inkscape:connector-curvature="0" />
    <path
       style="opacity:1;fill:#00ffd2;fill-opacity:1;stroke:none;stroke-opacity:1"
       d="m 273.54132,420.5676 c 9.91385,-8.42802 21.28401,-15.61422 32.0244,-20.24019 4.36691,-1.88086 15.54469,-5.81174 16.57121,-5.82757 0.35663,-0.006 31.64013,115.13775 31.69631,116.66245 0.005,0.1413 -19.29275,-19.04524 -42.88436,-42.63682 l -42.89379,-42.89383 2.05189,-1.9444 c 1.12855,-1.06944 2.67398,-2.47328 3.43434,-3.11964 z"
       id="path4433"
       inkscape:connector-curvature="0" />
    <path
       style="opacity:1;fill:#86e2d0;fill-opacity:1;stroke:none;stroke-opacity:1"
       d="m 187.86647,330.41694 c 17.89819,-16.69931 44.37668,-33.87148 67.87669,-44.02025 9.77797,-4.22276 33.78219,-12.57511 34.39086,-11.96644 0.25179,0.25171 11.04699,40.19183 11.99833,44.39115 0.49638,2.19098 0.42012,2.36187 -1.1796,2.6437 -1.52194,0.26812 -14.56134,4.64416 -18.74222,6.2899 -22.92884,9.02561 -43.89671,22.18565 -63.33161,39.74878 l -4.53436,4.09767 -17.107,-16.94159 -17.10706,-16.94158 2.54487,-2.41616 c 1.39965,-1.32895 3.73566,-3.52724 5.1911,-4.88518 z"
       id="path4435"
       inkscape:connector-curvature="0"
       inkscape:export-xdpi="155"
       inkscape:export-ydpi="155" />
    <path
       style="opacity:1;fill:#2a766b;fill-opacity:1;stroke:none;stroke-opacity:1"
       d="m 271.14501,422.96688 c 10.0454,-9.02284 23.18805,-17.55559 34.69915,-22.5281 2.21028,-0.9548 6.75714,-2.64932 10.10405,-3.76563 l 6.08536,-2.02962 1.33446,4.59429 c 3.39103,11.67454 29.80803,109.25815 29.84032,110.22939 0.0299,0.89828 -17.52282,-16.20512 -51.47628,-50.15859 -31.88268,-31.8827 -33.64407,-33.7036 -33.05837,-34.17732 0.34025,-0.27519 1.45232,-1.24919 2.47131,-2.16442 z"
       id="path4437"
       inkscape:connector-curvature="0"
       inkscape:export-xdpi="155"
       inkscape:export-ydpi="155" />
    <path
       style="opacity:1;fill:#002efb;fill-opacity:1;stroke:none;stroke-opacity:1"
       d="m 296.26487,272.56597 c 19.51674,-4.76522 37.49891,-6.84462 59.05988,-6.8295 21.71108,0.0152 37.86061,1.87243 58.36963,6.71264 l 5.39431,1.27307 -6.24995,23.31259 c -3.43748,12.8219 -6.32245,23.38505 -6.41102,23.47361 -0.0886,0.0885 -2.18357,-0.33413 -4.65553,-0.93933 -15.60974,-3.82165 -31.44134,-5.52208 -49.52569,-5.31933 -14.45199,0.16202 -27.4742,1.67938 -41.25042,4.80655 -3.53528,0.80252 -6.51047,1.46806 -6.61152,1.47899 -0.10104,0.011 -2.78671,-9.70606 -5.96812,-21.5933 -3.18146,-11.88728 -6.00729,-22.43085 -6.27966,-23.43021 l -0.49522,-1.81694 4.62331,-1.12884 z"
       id="path4439"
       inkscape:connector-curvature="0" />
    <path
       style="opacity:1;fill:#012bff;fill-opacity:1;stroke:none;stroke-opacity:1"
       d="m 309.99533,320.45314 c 18.91648,-4.64151 44.37531,-6.28765 65.21717,-4.21683 11.0684,1.09974 29.06982,4.56477 30.34631,5.84122 0.5499,0.54993 0.69098,-0.0293 -6.76144,27.76674 -6.78595,25.31037 -11.58016,42.30631 -12.07269,42.7988 -0.18248,0.18249 -3.42425,-0.24435 -7.20402,-0.94847 -10.10102,-1.88164 -13.84459,-2.21558 -24.58511,-2.19317 -8.90342,0.0186 -17.77244,0.90669 -27.67688,2.7715 -1.69827,0.31974 -3.29008,0.3824 -3.53742,0.13922 -0.51737,-0.50889 -3.66131,-11.85539 -10.9629,-39.56708 -7.13343,-27.0735 -7.95396,-30.46144 -7.48999,-30.92542 0.22351,-0.22349 2.35064,-0.88343 4.72697,-1.46651 z"
       id="path4441"
       inkscape:connector-curvature="0"
       inkscape:export-xdpi="155"
       inkscape:export-ydpi="155" />
    <path
       style="opacity:1;fill:#002efb;fill-opacity:1;stroke:none;stroke-opacity:1"
       d="m 330.68032,392.4833 c 12.04408,-2.41873 25.76763,-3.05965 37.82942,-1.76673 4.94826,0.53045 18.26746,3.03705 18.25525,3.43559 -0.0211,0.68838 -31.22571,116.62769 -31.38988,116.62769 -0.26934,10e-6 -31.55036,-116.57477 -31.34333,-116.80693 0.0922,-0.1036 3.08413,-0.7738 6.64854,-1.48962 z"
       id="path4443"
       inkscape:connector-curvature="0" />
    <path
       style="opacity:1;fill:#869ee2;fill-opacity:1;stroke:none;stroke-opacity:1"
       d="m 300.2508,271.8582 c 32.17251,-7.16709 68.81046,-7.90128 99.92187,-2.00235 7.86716,1.49167 18.57405,3.88122 18.5614,4.14251 -0.046,0.94727 -12.25314,45.8174 -12.54405,46.10831 -0.13805,0.13813 -1.69877,-0.0996 -3.46821,-0.52813 -16.20848,-3.92558 -31.00424,-5.49662 -50.15796,-5.32584 -14.3306,0.12776 -24.07751,1.13024 -37.60266,3.86738 -5.55717,1.12464 -10.20666,2.06067 -10.33219,2.08009 -0.12543,0.0195 -2.66219,-8.96952 -5.63703,-19.97538 -2.97487,-11.00585 -5.79228,-21.42293 -6.26089,-23.14904 -0.46863,-1.72612 -0.77377,-3.20401 -0.67814,-3.2842 0.0956,-0.0802 3.78467,-0.95022 8.19786,-1.93335 z"
       id="path4445"
       inkscape:connector-curvature="0"
       inkscape:export-xdpi="155"
       inkscape:export-ydpi="155" />
    <path
       style="opacity:1;fill:#2a3776;fill-opacity:1;stroke:none;stroke-opacity:1"
       d="m 330.45712,392.7615 c 3.09723,-0.59538 8.08502,-1.36229 11.08402,-1.70421 7.00884,-0.79911 21.41638,-0.80836 27.60471,-0.0177 5.27661,0.67416 16.75256,2.81087 17.12347,3.18821 0.12765,0.13049 0.0643,0.85782 -0.14128,1.61711 -0.20562,0.75927 -2.30859,8.65327 -4.67329,17.54219 -5.14991,19.35861 -18.25736,68.04146 -22.62343,84.02653 -1.71976,6.29637 -3.29158,11.44798 -3.49293,11.44795 -0.3693,4e-5 -3.75799,-12.25561 -15.74976,-56.96026 -11.3836,-42.43758 -15.22981,-57.22638 -14.99286,-57.64796 0.12651,-0.22513 2.76414,-0.89648 5.86135,-1.49187 z"
       id="path4447"
       inkscape:connector-curvature="0"
       inkscape:export-xdpi="155"
       inkscape:export-ydpi="155" />
    <path
       style="opacity:1;fill:#cb00ff;fill-opacity:1;stroke:none;stroke-opacity:1"
       d="m 426.33024,275.8287 c 36.57429,10.8532 69.9288,29.97167 98.56218,56.49491 l 6.05787,5.6114 -17.26392,17.26388 -17.26389,17.26391 -6.18548,-5.80349 c -15.25134,-14.30948 -34.76625,-27.08921 -54.57635,-35.74041 -6.4894,-2.83397 -18.44361,-7.19757 -23.65538,-8.63484 -2.20525,-0.60816 -4.01423,-1.29491 -4.01995,-1.52616 -0.0183,-0.742 12.20891,-45.98658 12.50879,-46.28646 0.15891,-0.15883 2.78515,0.45189 5.83613,1.35726 z"
       id="path4449"
       inkscape:connector-curvature="0" />
    <path
       style="opacity:1;fill:#7800ff;fill-opacity:1;stroke:none;stroke-opacity:1"
       d="m 413.9947,324.56917 c 28.03837,8.63403 53.50958,23.35178 76.21319,44.0375 l 4.93498,4.49634 -25.75668,25.75668 -25.75667,25.75666 -1.37595,-1.02182 c -0.75676,-0.56204 -2.90405,-2.37108 -4.77174,-4.02017 -12.47135,-11.01159 -24.8239,-18.01232 -43.96509,-24.91699 l -4.57097,-1.64885 0.82026,-3.14843 c 3.14809,-12.08329 17.62085,-65.83818 17.88301,-66.42132 0.2563,-0.56992 1.6027,-0.3301 6.34564,1.13041 z"
       id="path4451"
       inkscape:connector-curvature="0"
       inkscape:export-xdpi="155"
       inkscape:export-ydpi="155" />
    <path
       style="opacity:1;fill:#cb00ff;fill-opacity:1;stroke:none;stroke-opacity:1"
       d="m 395.49128,396.79345 c 16.93161,5.8545 30.28859,13.79048 44.14039,26.22589 l 3.28512,2.94916 -43.05575,43.05574 c -23.81444,23.81442 -43.04201,42.79801 -43.02499,42.47906 0.0212,-0.39785 29.64699,-111.0643 31.28315,-116.85758 0.0568,-0.20103 3.37422,0.76539 7.37208,2.14773 z"
       id="path4453"
       inkscape:connector-curvature="0" />
    <path
       style="opacity:1;fill:#b186e2;fill-opacity:1;stroke:none;stroke-opacity:1"
       d="m 425.17902,275.70314 c 5.78048,1.57698 19.61421,6.48015 26.37109,9.34691 26.44788,11.2211 49.10331,25.77508 71.78398,46.11443 3.3373,2.99282 6.39434,5.76244 6.79335,6.1547 l 0.7257,0.71298 -17.0788,17.07878 -17.07881,17.07879 -2.17091,-1.8254 c -1.194,-1.00397 -4.20215,-3.70581 -6.68481,-6.00411 -9.12063,-8.44338 -23.27388,-18.5356 -35.42386,-25.25959 -11.70602,-6.47827 -21.83287,-10.8324 -36.76402,-15.80695 l -7.53855,-2.51158 1.56874,-6.07816 c 3.32218,-12.87155 10.67839,-39.45938 11.00818,-39.78718 0.19044,-0.18905 2.21039,0.16456 4.48897,0.78616 z"
       id="path4455"
       inkscape:connector-curvature="0"
       inkscape:export-xdpi="155"
       inkscape:export-ydpi="155" />
    <path
       style="opacity:1;fill:#4e2a76;fill-opacity:1;stroke:none;stroke-opacity:1"
       d="m 391.76731,395.72133 c 18.31281,5.73538 33.83515,14.81084 49.24687,28.79326 l 1.76028,1.59703 -25.94259,25.84965 c -14.26838,14.21737 -33.5218,33.25479 -42.78534,42.3054 l -16.84276,16.45567 8.76696,-32.84379 c 13.12081,-49.15456 21.97008,-82.03622 22.24276,-82.64852 0.14514,-0.32599 1.57597,-0.12818 3.5538,0.49126 z"
       id="path4457"
       inkscape:connector-curvature="0"
       inkscape:export-xdpi="155"
       inkscape:export-ydpi="155" />
    <path
       style="opacity:1;fill:#ff00f7;fill-opacity:1;stroke:none;stroke-opacity:1"
       d="m 537.20109,344.63224 c 22.93083,24.75519 39.8845,52.2668 51.39624,83.40328 3.18391,8.61172 6.87051,20.58043 6.46434,20.98665 -0.20574,0.20574 -32.51217,9.00134 -46.25654,12.59358 -0.19534,0.051 -0.81485,-1.52537 -1.37665,-3.50315 -8.03275,-28.27823 -24.54998,-57.49455 -44.56313,-78.82492 l -5.80346,-6.18547 17.26389,-17.26389 17.26389,-17.26392 5.61142,6.05784 z"
       id="path4459"
       inkscape:connector-curvature="0" />
    <path
       style="opacity:1;fill:#ff00f7;fill-opacity:1;stroke:none;stroke-opacity:1"
       d="m 501.08032,378.83482 c 20.81115,22.76152 36.27337,49.56907 44.49869,77.14919 1.32906,4.45649 1.38142,5.00043 0.55012,5.71531 -0.50528,0.43456 -5.0027,1.93006 -9.99425,3.32337 -10.51788,2.93591 -59.292,16.02455 -59.7146,16.02454 -0.1566,0 -1.49893,-3.41434 -2.98298,-7.58741 -5.31651,-14.94995 -12.61367,-27.78869 -22.36229,-39.34455 -2.09199,-2.47981 -4.48144,-5.34152 -5.30991,-6.35935 l -1.50633,-1.8506 26.08216,-26.08214 26.08212,-26.08214 4.65728,5.09376 z"
       id="path4461"
       inkscape:connector-curvature="0" />
    <path
       style="opacity:1;fill:#ff00f7;fill-opacity:1;stroke:none;stroke-opacity:1"
       d="m 446.65321,430.06481 c 12.36712,13.72332 21.19051,28.80651 26.6766,45.60236 l 1.85608,5.68251 -1.59633,0.41796 c -0.87799,0.22988 -27.11315,7.27133 -58.30033,15.64769 -31.18718,8.37636 -56.9606,15.24646 -57.27426,15.26691 -0.31365,0.0204 18.80264,-19.33577 42.48067,-43.01378 l 43.05093,-43.05095 3.10664,3.4473 z"
       id="path4463"
       inkscape:connector-curvature="0" />
    <path
       style="opacity:1;fill:#ff00f7;fill-opacity:1;stroke:none;stroke-opacity:1"
       d="m 535.5819,343.05438 c 24.36789,26.83937 39.90783,51.42705 51.45212,81.40896 4.3159,11.20898 8.24537,23.70165 7.64426,24.3028 -0.17778,0.1777 -2.5841,0.95788 -5.34744,1.73368 -6.50062,1.82501 -37.88706,10.31286 -39.40724,10.65692 l -1.16468,0.26358 -3.15573,-9.46473 c -8.90694,-26.71373 -23.65654,-52.25744 -40.78239,-70.62718 -2.46027,-2.63903 -5.15229,-5.62976 -5.98226,-6.64609 l -1.50908,-1.84785 17.11024,-17.11023 17.11018,-17.11019 4.03164,4.44054 z"
       id="path4465"
       inkscape:connector-curvature="0" />
    <path
       style="opacity:1;fill:#ae00ff;fill-opacity:1;stroke:none;stroke-opacity:1"
       d="m 498.67,376.20894 c 5.57553,5.57977 14.64919,16.77123 20.82735,25.68977 10.64844,15.3717 19.84043,34.18162 25.50225,52.18617 2.56741,8.16446 2.80882,7.70738 -5.29733,10.03054 -7.98178,2.28753 -62.35883,16.94094 -62.99321,16.97526 -0.29267,0.0158 -1.68903,-3.18303 -3.10518,-7.11348 -5.89654,-16.36568 -13.79397,-29.96676 -24.41686,-42.05105 -1.56296,-1.77797 -3.30256,-3.8508 -3.86581,-4.60636 l -1.02408,-1.37375 26.0279,-26.02787 26.02787,-26.02788 2.31716,2.31858 z"
       id="path4467"
       inkscape:connector-curvature="0"
       inkscape:export-xdpi="155"
       inkscape:export-ydpi="155" />
    <path
       style="opacity:1;fill:#5e2a76;fill-opacity:1;stroke:none;stroke-opacity:1"
       d="m 447.2597,431.05689 c 7.88377,8.85901 13.73216,17.52729 19.12693,28.34931 4.27759,8.58092 8.93692,21.44673 7.92939,21.89543 -0.61447,0.2737 -88.28704,23.84318 -107.44832,28.88594 l -8.20201,2.15857 16.31823,-16.7414 c 8.97504,-9.20781 28.04493,-28.46847 42.3776,-42.8015 l 26.05936,-26.06002 3.83882,4.31367 z"
       id="path4469"
       inkscape:connector-curvature="0"
       inkscape:export-xdpi="155"
       inkscape:export-ydpi="155" />
    <path
       style="opacity:1;fill:#c586e2;fill-opacity:1;stroke:none;stroke-opacity:1"
       d="m 532.84795,340.03362 c 2.69157,2.7043 11.67685,12.97958 15.73453,17.99441 17.96072,22.19718 31.69102,46.75296 41.04613,73.40838 3.43997,9.80152 5.49196,16.88744 5.02539,17.35398 -0.19751,0.19752 -4.85957,1.60446 -10.36026,3.12659 -15.0117,4.15402 -34.08423,9.27407 -34.87302,9.3617 -0.52217,0.058 -1.33326,-1.83567 -3.23622,-7.55579 -9.40672,-28.2756 -23.79334,-53.34762 -41.70935,-72.68812 -2.62126,-2.82967 -5.30285,-5.83086 -5.95904,-6.66928 l -1.19308,-1.52441 17.08463,-17.08464 17.08465,-17.08465 1.3559,1.36159 z"
       id="path4471"
       inkscape:connector-curvature="0"
       inkscape:export-xdpi="155"
       inkscape:export-ydpi="155" />
    <path
       style="opacity:1;fill:#ff0074;fill-opacity:1;stroke:none;stroke-opacity:1"
       d="m 572.52142,456.65241 23.27709,-6.2333 1.27509,5.40276 c 4.847,20.538 6.7082,36.72507 6.71141,58.37024 0.003,19.60236 -1.32431,32.83557 -5.11476,50.99867 -1.05044,5.03359 -2.12716,9.94427 -2.39265,10.91255 l -0.48276,1.76053 -23.46841,-6.29622 c -20.76732,-5.57156 -23.44237,-6.39757 -23.24215,-7.17695 1.29691,-5.04899 3.01754,-13.42613 3.85777,-18.78238 3.96849,-25.29748 2.90787,-53.90569 -2.86745,-77.34407 -0.67691,-2.74714 -1.14061,-5.08116 -1.03051,-5.18669 0.10989,-0.10571 10.67491,-2.99682 23.47733,-6.42514 z"
       id="path4473"
       inkscape:connector-curvature="0" />
    <path
       style="opacity:1;fill:#ff0074;fill-opacity:1;stroke:none;stroke-opacity:1"
       d="m 495.63623,477.66515 c 10.24196,-2.75388 26.05256,-6.98542 35.13461,-9.40343 l 16.51292,-4.39638 0.6027,2.27715 c 0.33153,1.25243 1.10451,4.79662 1.71778,7.87596 4.32205,21.7027 5.18955,41.53016 2.76674,63.23851 -0.84413,7.56359 -4.32758,25.92155 -5.05701,26.65103 -0.23224,0.23223 -9.4424,-1.99508 -20.46696,-4.94964 -41.63704,-11.15861 -50.03975,-13.56619 -49.70231,-14.24104 0.1303,-0.2607 0.82002,-3.69351 1.5327,-7.62853 2.9021,-16.02436 2.70621,-32.17436 -0.58781,-48.46324 -0.562,-2.77896 -1.03376,-5.2553 -1.04842,-5.503 -0.0147,-0.2477 8.35311,-2.70353 18.59506,-5.45739 z"
       id="path4475"
       inkscape:connector-curvature="0"
       inkscape:export-xdpi="155"
       inkscape:export-ydpi="155" />
    <path
       style="opacity:1;fill:#ff0074;fill-opacity:1;stroke:none;stroke-opacity:1"
       d="m 416.6012,498.40761 c 31.64515,-8.44592 57.85922,-15.44007 58.25351,-15.54257 0.56376,-0.14653 0.98189,1.10181 1.9573,5.84284 3.10235,15.07937 3.48749,29.69602 1.17379,44.54877 -0.94506,6.06697 -2.27272,12.38281 -2.59503,12.34528 -0.1614,-0.0188 -114.05254,-30.58261 -116.52166,-31.26975 -0.20624,-0.0574 -0.24678,-0.20877 -0.0898,-0.33636 0.15698,-0.12747 26.17681,-7.14229 57.82195,-15.58819 z"
       id="path4477"
       inkscape:connector-curvature="0" />
    <path
       style="opacity:1;fill:#e286b0;fill-opacity:1;stroke:none;stroke-opacity:1"
       d="m 553.46061,461.98672 c 1.94135,-0.52042 12.02262,-3.24332 22.40294,-6.05088 10.38028,-2.80752 19.10089,-5.12051 19.37911,-5.13997 0.54363,-0.038 2.69856,9.00329 4.54648,19.07524 4.99821,27.24295 5.10021,60.37252 0.26774,86.98737 -1.56093,8.59698 -4.19577,20.74504 -4.49567,20.72754 -0.53843,-0.0315 -36.69161,-9.84546 -40.78633,-11.07172 -2.55051,-0.76381 -4.83362,-1.59817 -5.07355,-1.85413 -0.23986,-0.25604 0.15919,-3.01949 0.88694,-6.14119 6.69834,-28.7329 6.46273,-62.20359 -0.64553,-91.71273 -0.42668,-1.77132 -0.60386,-3.36741 -0.39372,-3.54692 0.21009,-0.1795 1.97028,-0.75218 3.91159,-1.27261 z"
       id="path4479"
       inkscape:connector-curvature="0"
       inkscape:export-xdpi="155"
       inkscape:export-ydpi="155" />
    <path
       style="opacity:1;fill:#762a4d;fill-opacity:1;stroke:none;stroke-opacity:1"
       d="m 383.24208,507.55221 c 58.93776,-15.84358 91.82336,-24.53229 92.03827,-24.31741 0.42828,0.4283 2.70067,12.76373 3.26492,17.72328 0.91006,7.99921 0.65549,22.09527 -0.54885,30.39096 -1.11113,7.65381 -2.21121,13.29752 -2.68079,13.75332 -0.21029,0.20467 -113.83188,-30.06114 -115.16213,-30.67592 -0.21802,-0.10058 -0.27432,-0.30094 -0.12524,-0.44496 0.14937,-0.14374 10.59526,-3.0372 23.21382,-6.42927 z"
       id="path4481"
       inkscape:connector-curvature="0"
       inkscape:export-xdpi="155"
       inkscape:export-ydpi="155" />
    <path
       style="opacity:1;fill:#ff0007;fill-opacity:1;stroke:none;stroke-opacity:1"
       d="m 549.08949,566.80704 c 0.34282,0.0724 10.85205,2.85227 23.35377,6.17742 13.9187,3.70197 22.76229,6.28414 22.81246,6.66083 0.15244,1.14386 -6.72472,21.56647 -9.64103,28.63029 -8.72154,21.12501 -19.31736,39.60727 -32.85246,57.30447 -4.83602,6.32313 -13.00154,15.84164 -17.198,20.04768 l -3.75227,3.7608 -17.06859,-17.06857 -17.06856,-17.0686 4.02711,-4.44506 c 12.08149,-13.33548 21.25264,-26.04515 29.23379,-40.51325 6.59812,-11.96097 13.2692,-28.16719 16.6691,-40.49482 0.61528,-2.231 1.03933,-3.08536 1.48466,-2.99125 z"
       id="path4483"
       inkscape:connector-curvature="0" />
    <path
       style="opacity:1;fill:#ff0000;fill-opacity:1;stroke:none;stroke-opacity:1"
       d="m 502.77081,554.31109 c 34.67317,9.30412 43.13013,11.6931 43.81395,12.37693 0.39857,0.39856 0.0855,2.03473 -1.05274,5.50126 -1.65917,5.05341 -4.7216,13.74974 -5.70352,16.1963 -0.30214,0.75285 -0.9331,2.34872 -1.4021,3.54635 -0.46898,1.19762 -1.04134,2.36607 -1.27185,2.59658 -0.23051,0.23043 -0.42699,0.68454 -0.43664,1.00899 -0.0575,1.93193 -10.63824,21.54108 -14.55502,26.97468 -0.44196,0.6131 -0.9421,1.40775 -1.11146,1.76591 -0.16938,0.35816 -0.86591,1.388 -1.54801,2.28848 -0.68207,0.90047 -1.47554,1.97724 -1.76332,2.39285 -0.28775,0.41561 -1.00197,1.40449 -1.58711,2.19757 -0.58512,0.79306 -1.39963,1.92139 -1.81008,2.50736 -0.41046,0.58593 -1.28867,1.74516 -1.95167,2.57599 -0.66305,0.83082 -1.77638,2.23452 -2.47413,3.11928 -2.68893,3.40954 -4.31346,5.28367 -8.83275,10.18973 l -4.67545,5.07558 -26.02961,-26.02961 c -24.56972,-24.56971 -25.99926,-26.06207 -25.48917,-26.60814 0.82922,-0.8876 5.37444,-6.22452 6.98479,-8.20124 1.79355,-2.20166 3.61942,-4.59454 6.08819,-7.97883 5.83401,-7.99738 12.22524,-20.97492 16.14573,-32.78413 0.95921,-2.88931 1.86496,-5.37421 2.01279,-5.52204 0.1478,-0.1478 12.13992,2.91674 26.64912,6.81012 z"
       id="path4485"
       inkscape:connector-curvature="0"
       inkscape:export-xdpi="155"
       inkscape:export-ydpi="155" />
    <path
       style="opacity:1;fill:#762a2a;fill-opacity:1;stroke:none;stroke-opacity:1"
       d="m 416.44386,531.17921 c 31.93923,8.55315 58.24346,15.62713 58.4539,15.71993 0.57669,0.25431 -4.22402,13.87397 -7.02538,19.93101 -4.75363,10.27815 -12.34152,21.74086 -20.35555,30.7502 l -3.53689,3.97617 -42.88396,-42.88398 c -23.5862,-23.58617 -42.84787,-42.92011 -42.80369,-42.96427 0.0442,-0.0442 26.21237,6.91776 58.15157,15.47094 z"
       id="path4487"
       inkscape:connector-curvature="0"
       inkscape:export-xdpi="155"
       inkscape:export-ydpi="155" />
    <path
       style="opacity:1;fill:#e28686;fill-opacity:1;stroke:none;stroke-opacity:1"
       d="m 566.30746,571.21265 c 22.1542,5.90275 28.1968,7.67937 28.50984,8.3823 0.37032,0.83161 -7.43558,23.57351 -10.80964,31.49292 -11.50961,27.01474 -26.37782,49.81776 -47.63394,73.05483 l -4.50569,4.92559 -16.96316,-16.96313 -16.96314,-16.96313 0.87994,-1.19814 c 0.48393,-0.65899 2.59369,-3.08108 4.68824,-5.38249 19.38902,-21.30348 34.60492,-47.84033 43.03839,-75.05983 1.01472,-3.27518 2.04166,-6.15154 2.28207,-6.39194 0.24041,-0.24042 8.1051,1.60592 17.47709,4.10302 z"
       id="path4489"
       inkscape:connector-curvature="0"
       inkscape:export-xdpi="155"
       inkscape:export-ydpi="155" />
    <path
       style="opacity:1;fill:#000000;fill-opacity:0;stroke:none;stroke-opacity:1"
       d="m 383.2404,522.52268 c 42.06581,11.21628 90.33568,24.22623 91.02676,24.53402 1.21545,0.54132 -4.80334,16.66548 -9.49124,25.42675 -4.47142,8.35669 -10.76137,17.29094 -18.42425,26.16966 l -2.44365,2.83146 -33.29287,-33.38069 c -18.31109,-18.35932 -37.27982,-37.5439 -42.15275,-42.6323 l -8.85991,-9.25164 23.6379,6.30273 z"
       id="path4491"
       inkscape:connector-curvature="0" />
  </g>
</svg>
