<?xml version="1.0" encoding="UTF-8" standalone="no"?>
<!-- Created with Inkscape (http://www.inkscape.org/) -->

<svg
   xmlns:dc="http://purl.org/dc/elements/1.1/"
   xmlns:cc="http://creativecommons.org/ns#"
   xmlns:rdf="http://www.w3.org/1999/02/22-rdf-syntax-ns#"
   xmlns:svg="http://www.w3.org/2000/svg"
   xmlns="http://www.w3.org/2000/svg"
   xmlns:sodipodi="http://sodipodi.sourceforge.net/DTD/sodipodi-0.dtd"
   xmlns:inkscape="http://www.inkscape.org/namespaces/inkscape"
   width="210mm"
   height="297mm"
   viewBox="0 0 744.09448819 1052.3622047"
   id="svg3397"
   version="1.1"
   inkscape:version="0.48.3.1 r9886"
   sodipodi:docname="colour_wheel.svg"
   inkscape:export-filename="/Volumes/TRUECRYPT1/Laptop/My Moths/lateral-keys/colours/yellow.png"
   inkscape:export-xdpi="155"
   inkscape:export-ydpi="155">
  <defs
     id="defs3399" />
  <sodipodi:namedview
     id="base"
     pagecolor="#ffffff"
     bordercolor="#666666"
     borderopacity="1.0"
     inkscape:pageopacity="0.0"
     inkscape:pageshadow="2"
     inkscape:zoom="1.218"
     inkscape:cx="136.00302"
     inkscape:cy="456.41652"
     inkscape:document-units="px"
     inkscape:current-layer="layer1"
     showgrid="false"
     inkscape:snap-global="true"
     inkscape:snap-bbox="true"
     inkscape:snap-bbox-midpoints="true"
     inkscape:bbox-paths="true"
     inkscape:window-width="1834"
     inkscape:window-height="772"
     inkscape:window-x="65"
     inkscape:window-y="24"
     inkscape:window-maximized="0" />
  <metadata
     id="metadata3402">
    <rdf:RDF>
      <cc:Work
         rdf:about="">
        <dc:format>image/svg+xml</dc:format>
        <dc:type
           rdf:resource="http://purl.org/dc/dcmitype/StillImage" />
        <dc:title></dc:title>
      </cc:Work>
    </rdf:RDF>
  </metadata>
  <g
     inkscape:label="Layer 1"
     inkscape:groupmode="layer"
     id="layer1">
    <path
       style="font-size:medium;font-style:normal;font-variant:normal;font-weight:normal;font-stretch:normal;text-indent:0;text-align:start;text-decoration:none;line-height:normal;letter-spacing:normal;word-spacing:normal;text-transform:none;direction:ltr;block-progression:tb;writing-mode:lr-tb;text-anchor:start;baseline-shift:baseline;color:#000000;fill:#000000;fill-opacity:1;fill-rule:nonzero;stroke:none;visibility:visible;display:inline;overflow:visible;enable-background:accumulate;font-family:sans-serif"
       d="M 419.9196,272.80955 C 286.55863,237.07558 149.46736,316.22527 113.73338,449.58625 77.999414,582.94724 157.1491,720.03851 290.51008,755.7725 423.87107,791.50644 560.96232,712.35677 596.6963,578.99577 632.43028,445.63481 553.2806,308.5435 419.9196,272.80955 z m -0.25123,0.93765 C 552.52282,309.34538 631.3569,445.89008 595.75868,578.74454 560.16044,711.59898 423.61573,790.43312 290.76132,754.83486 157.90691,719.23659 79.072784,582.69193 114.67101,449.83749 150.26922,316.98306 286.81393,238.14896 419.66837,273.7472 z"
       id="path3405"
       inkscape:connector-curvature="0" />
    <path
       style="font-size:medium;font-style:normal;font-variant:normal;font-weight:normal;font-stretch:normal;text-indent:0;text-align:start;text-decoration:none;line-height:normal;letter-spacing:normal;word-spacing:normal;text-transform:none;direction:ltr;block-progression:tb;writing-mode:lr-tb;text-anchor:start;baseline-shift:baseline;color:#000000;fill:#000000;fill-opacity:1;fill-rule:evenodd;stroke:none;visibility:visible;display:inline;overflow:visible;enable-background:accumulate;font-family:sans-serif"
       d="m 114.25868,449.25585 -0.23555,0.87917 481.70832,129.07336 0.23557,-0.87915 -481.70834,-129.07338 z"
       id="path3429"
       inkscape:connector-curvature="0" />
    <path
       style="font-size:medium;font-style:normal;font-variant:normal;font-weight:normal;font-stretch:normal;text-indent:0;text-align:start;text-decoration:none;line-height:normal;letter-spacing:normal;word-spacing:normal;text-transform:none;direction:ltr;block-progression:tb;writing-mode:lr-tb;text-anchor:start;baseline-shift:baseline;color:#000000;fill:#000000;fill-opacity:1;fill-rule:evenodd;stroke:none;visibility:visible;display:inline;overflow:visible;enable-background:accumulate;font-family:sans-serif"
       d="m 595.73302,449.25536 -481.70935,129.07407 0.23531,0.87997 481.70938,-129.0741 -0.23534,-0.87994 z"
       id="path3431"
       inkscape:connector-curvature="0" />
    <path
       style="font-size:medium;font-style:normal;font-variant:normal;font-weight:normal;font-stretch:normal;text-indent:0;text-align:start;text-decoration:none;line-height:normal;letter-spacing:normal;word-spacing:normal;text-transform:none;direction:ltr;block-progression:tb;writing-mode:lr-tb;text-anchor:start;baseline-shift:baseline;color:#000000;fill:#000000;fill-opacity:1;fill-rule:evenodd;stroke:none;visibility:visible;display:inline;overflow:visible;enable-background:accumulate;font-family:sans-serif"
       d="m 530.99189,337.5927 -352.63614,352.63554 0.64441,0.64378 352.63607,-352.6355 -0.64434,-0.64382 z"
       id="path3433"
       inkscape:connector-curvature="0" />
    <path
       style="font-size:medium;font-style:normal;font-variant:normal;font-weight:normal;font-stretch:normal;text-indent:0;text-align:start;text-decoration:none;line-height:normal;letter-spacing:normal;word-spacing:normal;text-transform:none;direction:ltr;block-progression:tb;writing-mode:lr-tb;text-anchor:start;baseline-shift:baseline;color:#000000;fill:#000000;fill-opacity:1;fill-rule:evenodd;stroke:none;visibility:visible;display:inline;overflow:visible;enable-background:accumulate;font-family:sans-serif"
       d="m 419.09337,273.25946 -129.07334,481.70835 0.87912,0.23557 129.0734,-481.70834 -0.87918,-0.23558 z"
       id="path3435"
       inkscape:connector-curvature="0" />
    <path
       style="font-size:medium;font-style:normal;font-variant:normal;font-weight:normal;font-stretch:normal;text-indent:0;text-align:start;text-decoration:none;line-height:normal;letter-spacing:normal;word-spacing:normal;text-transform:none;direction:ltr;block-progression:tb;writing-mode:lr-tb;text-anchor:start;baseline-shift:baseline;color:#000000;fill:#000000;fill-opacity:1;fill-rule:evenodd;stroke:none;visibility:visible;display:inline;overflow:visible;enable-background:accumulate;font-family:sans-serif"
       d="m 290.89894,273.26 -0.87997,0.23537 129.07414,481.70937 0.87991,-0.23539 L 290.89894,273.26 z"
       id="path3437"
       inkscape:connector-curvature="0" />
    <path
       style="font-size:medium;font-style:normal;font-variant:normal;font-weight:normal;font-stretch:normal;text-indent:0;text-align:start;text-decoration:none;line-height:normal;letter-spacing:normal;word-spacing:normal;text-transform:none;direction:ltr;block-progression:tb;writing-mode:lr-tb;text-anchor:start;baseline-shift:baseline;color:#000000;fill:#000000;fill-opacity:1;fill-rule:evenodd;stroke:none;visibility:visible;display:inline;overflow:visible;enable-background:accumulate;font-family:sans-serif"
       d="m 179.00012,337.5921 -0.64378,0.6444 352.63552,352.63616 0.64377,-0.64445 L 179.00012,337.5921 z"
       id="path3439"
       inkscape:connector-curvature="0" />
    <path
       style="font-size:medium;font-style:normal;font-variant:normal;font-weight:normal;font-stretch:normal;text-indent:0;text-align:start;text-decoration:none;line-height:normal;letter-spacing:normal;word-spacing:normal;text-transform:none;direction:ltr;block-progression:tb;writing-mode:lr-tb;text-anchor:start;baseline-shift:baseline;color:#000000;fill:#000000;fill-opacity:1;fill-rule:nonzero;stroke:none;visibility:visible;display:inline;overflow:visible;enable-background:accumulate;font-family:sans-serif"
       d="M 406.97864,321.10584 C 300.28988,292.51869 190.61685,355.8384 162.02968,462.5272 133.4425,569.21601 196.76227,678.88901 303.45103,707.47616 410.13982,736.06337 519.81284,672.74361 548.4,566.05482 576.98717,459.36605 513.66741,349.69301 406.97864,321.10584 z m -0.20067,0.74899 C 513.06152,350.3334 576.12775,459.57007 547.6495,565.85342 519.17088,672.13696 409.93611,735.20371 303.65258,706.72512 197.369,678.24649 134.3004,569.01124 162.77933,462.72751 191.25793,356.44394 300.49514,293.37581 406.77864,321.85444 z"
       id="circle3441"
       inkscape:connector-curvature="0" />
    <path
       style="font-size:medium;font-style:normal;font-variant:normal;font-weight:normal;font-stretch:normal;text-indent:0;text-align:start;text-decoration:none;line-height:normal;letter-spacing:normal;word-spacing:normal;text-transform:none;direction:ltr;block-progression:tb;writing-mode:lr-tb;text-anchor:start;baseline-shift:baseline;color:#000000;fill:#000000;fill-opacity:1;fill-rule:nonzero;stroke:none;visibility:visible;display:inline;overflow:visible;enable-background:accumulate;font-family:sans-serif"
       d="m 387.56723,393.55029 c -66.68051,-17.86699 -135.22615,21.70785 -153.09311,88.38834 -17.86702,66.68049 21.70786,135.22613 88.38832,153.09311 66.68054,17.86698 135.22615,-21.70785 153.09313,-88.38836 17.86699,-66.68048 -21.70785,-135.22615 -88.38834,-153.09309 z m -0.12536,0.46787 c 66.42719,17.79913 105.84306,86.07215 88.04429,152.49918 -17.79913,66.4272 -86.07029,105.84357 -152.49751,88.04445 -66.42721,-17.79915 -105.84546,-86.07077 -88.046,-152.49819 17.79912,-66.42722 86.07267,-105.84495 152.4999,-88.04584 z"
       id="circle3443"
       inkscape:connector-curvature="0" />
    <path
       style="fill:#ff0000;fill-opacity:1;stroke:#ff0000;stroke-width:0.45213166;stroke-opacity:0.95294118"
       d="m 313.72929,357.56159 c -9.06041,-33.81861 -9.46509,-35.52692 -8.50524,-35.90464 0.55425,-0.21815 5.13126,-1.24289 10.17119,-2.27725 26.22288,-5.38195 51.94551,-5.46409 78.70494,-0.25137 3.54781,0.69111 7.67931,1.58374 9.1812,1.98363 l 2.73059,0.7275 -9.52624,35.55239 -9.52626,35.55235 -4.33268,-0.86232 c -19.32564,-3.84649 -34.31214,-3.99479 -51.83192,-0.51281 l -7.55272,1.50102 -9.513,-35.50805 z"
       id="path4330"
       inkscape:connector-curvature="0" />
    <path
       style="fill:#ffff00;fill-opacity:1;stroke:none"
       d="m 470.24676,628.54302 c -14.20983,-14.22401 -25.79165,-26.00847 -25.73742,-26.18766 0.0543,-0.17926 1.92935,-2.36295 4.16686,-4.85274 7.39335,-8.22695 13.94533,-17.89768 18.78809,-27.73141 2.663,-5.40761 6.31601,-14.68846 7.45817,-18.94824 l 0.90743,-3.3845 35.6581,9.55455 35.65812,9.55457 -2.39546,7.90065 c -6.4732,21.34962 -17.94842,43.3938 -32.02189,61.51492 -4.2333,5.45079 -15.93186,18.67957 -16.3853,18.52854 -0.14337,-0.0478 -11.88689,-11.72464 -26.0967,-25.94868 z"
       id="path4358"
       inkscape:connector-curvature="0"
       inkscape:export-filename="/home/enpjp/Keys/knowledge_base_files/kb-springmoths/spring-moths/resources/colours/yellow.png"
       inkscape:export-xdpi="150"
       inkscape:export-ydpi="150" />
    <path
       style="fill:#0000ff;fill-opacity:1;stroke:#0000ff;stroke-width:0.45213166;stroke-opacity:1"
       d="m 209.55096,649.86189 c -18.87471,-20.32866 -33.77597,-45.1918 -42.52591,-70.95562 -2.83781,-8.35586 -3.93981,-12.38025 -3.45587,-12.6208 0.24326,-0.12093 16.31104,-4.46131 35.70606,-9.64528 20.25372,-5.41351 35.27769,-9.19185 35.29661,-8.87666 0.0712,1.18629 4.23223,12.91415 6.09285,17.17258 2.70754,6.19701 9.59991,18.04061 13.74535,23.61966 1.89214,2.54646 5.25327,6.67074 7.46922,9.16509 4.01994,4.52504 4.02692,4.53734 3.12375,5.5145 -3.33188,3.60495 -50.84194,50.79074 -51.15691,50.80783 -0.21628,0.0117 -2.14901,-1.86989 -4.29515,-4.18131 z"
       id="path4360"
       inkscape:connector-curvature="0" />
    <path
       style="fill:#ff6600;fill-opacity:1;stroke:#ff6600;stroke-width:0.45213166;stroke-opacity:1"
       d="m 473.65752,473.94445 c -5.46085,-15.99083 -13.7296,-30.19905 -24.9968,-42.95225 -4.0419,-4.57501 -4.32589,-5.02155 -3.65417,-5.74603 1.96177,-2.11602 50.59553,-50.66927 50.9986,-50.91415 0.95315,-0.57905 12.04218,11.99473 19.4485,22.05247 13.27784,18.03135 24.01754,39.43909 30.23446,60.26716 l 1.60292,5.37003 -35.30979,9.47041 c -19.4204,5.20866 -35.44427,9.48323 -35.60867,9.49899 -0.1644,0.0158 -1.38617,-3.15523 -2.71505,-7.04663 z"
       id="path4362"
       inkscape:connector-curvature="0"
       inkscape:export-xdpi="155"
       inkscape:export-ydpi="155"
       inkscape:export-filename="/home/enpjp/Keys/knowledge_base_files/kb-springmoths/spring-moths/resources/colours/orange.png" />
    <path
       style="fill:#00d400;fill-opacity:1;stroke:#00d400;stroke-width:0.45213166;stroke-opacity:1"
       d="m 313.54612,670.94455 9.51911,-35.52588 5.7658,1.23635 c 17.3269,3.71536 35.53689,3.75987 52.24904,0.12772 3.95226,-0.85898 5.65238,-1.03748 5.83328,-0.61242 0.93544,2.19773 18.75727,70.12044 18.49276,70.47962 -0.48711,0.66149 -14.03442,3.51686 -22.16933,4.67268 -12.83865,1.82408 -27.30058,2.41104 -40.08516,1.62676 -11.09743,-0.68078 -25.7126,-2.89905 -34.42862,-5.22554 l -4.69611,-1.25318 9.51917,-35.52583 z"
       id="path4364"
       inkscape:connector-curvature="0" />
    <path
       style="fill:#ff00ff;fill-opacity:1;stroke:#ff00ff;stroke-width:0.45213166;stroke-opacity:1"
       d="m 163.53582,460.41274 c 0.27439,-1.02059 1.54012,-4.94682 2.81273,-8.72497 8.0488,-23.89472 19.03491,-43.9582 34.49744,-63.00133 4.30128,-5.29731 10.6988,-12.39721 12.41229,-13.77506 0.77136,-0.62024 2.33508,0.85453 26.63939,25.12431 14.20098,14.18079 25.88361,25.86689 25.96138,25.96916 0.0778,0.10218 -1.70149,2.2741 -3.95387,4.82635 -4.77897,5.41524 -6.62574,7.78722 -10.48069,13.46139 -5.71238,8.40809 -11.22036,19.39602 -14.10775,28.14352 -0.80406,2.43591 -1.84318,5.43263 -2.30916,6.65937 l -0.84723,2.2304 -35.56172,-9.52869 -35.56168,-9.52874 0.49927,-1.85559 z"
       id="path4366"
       inkscape:connector-curvature="0" />
    <path
       style="fill:#000000;fill-opacity:0;stroke:none"
       d="m 473.6981,474.29128 c -3.46665,-9.63864 -5.76616,-14.65355 -10.34462,-22.56001 -4.66455,-8.05522 -8.01512,-12.7744 -14.24252,-20.06029 -2.32298,-2.71782 -4.25349,-5.2264 -4.2901,-5.57463 -0.0779,-0.74199 1.20416,-2.06207 26.99044,-27.78871 24.7382,-24.68102 24.21582,-24.17067 24.62819,-24.06023 1.07411,0.28782 10.34412,10.7758 16.20375,18.33273 11.66239,15.04051 22.23034,34.04076 29.27916,52.64133 1.51677,4.00249 5.5556,16.75548 5.33986,16.86109 -0.19431,0.0951 -35.94642,9.68218 -54.38434,14.58341 -8.75697,2.32777 -16.14131,4.17348 -16.40964,4.10156 -0.26835,-0.0719 -1.515,-2.98621 -2.77018,-6.47625 z"
       id="path4368"
       inkscape:connector-curvature="0" />
    <path
       style="fill:#ff5400;fill-opacity:1;stroke:#ff00ff;stroke-width:0.45213166;stroke-opacity:1"
       d="m 438.3278,420.7245 c -11.9847,-10.86787 -26.48978,-19.28131 -43.15624,-25.03214 l -7.20562,-2.48628 9.5136,-35.50532 9.51358,-35.50524 3.84328,1.02975 c 19.79793,5.30485 44.57442,17.53333 62.32748,30.76181 9.59837,7.15216 22.05085,18.03875 21.78181,19.04282 -0.14446,0.53921 -51.54702,52.04125 -51.82896,51.92933 -0.11639,-0.0462 -2.27135,-1.95185 -4.78893,-4.23473 z"
       id="path4370"
       inkscape:connector-curvature="0" />
    <path
       style="fill:#ffe200;fill-opacity:1;stroke:#ff00ff;stroke-width:0.45213166;stroke-opacity:1"
       d="m 477.62173,540.17187 c 3.72691,-17.03639 3.66399,-36.05125 -0.17524,-52.99832 -0.5957,-2.62956 -0.90868,-4.80494 -0.69551,-4.83426 0.21315,-0.0293 16.16705,-4.3085 35.45303,-9.50936 25.05784,-6.75739 35.18991,-9.29239 35.50175,-8.88243 0.67188,0.88337 4.50029,20.76465 5.20208,27.01487 2.55765,22.77898 1.38277,45.04608 -3.5002,66.33851 l -1.84573,8.04846 -35.63509,-9.54886 -35.63511,-9.54886 1.33002,-6.07975 z"
       id="path4372"
       inkscape:connector-curvature="0" />
    <path
       style="fill:#b7ff46;fill-opacity:1;stroke:#b7ff46;stroke-width:0.45213166;stroke-opacity:1"
       d="m 397.73185,671.10575 c -5.2054,-19.43267 -9.4269,-35.47198 -9.38112,-35.64292 0.0458,-0.17095 2.85931,-1.23772 6.25217,-2.37055 17.85667,-5.9622 33.52905,-15.44997 48.04908,-29.08796 0.53536,-0.50285 4.38388,3.17295 26.70667,25.50807 l 26.08113,26.09557 -3.25703,3.06718 c -22.65508,21.33424 -50.37145,37.40213 -79.61521,46.15507 l -5.37132,1.60765 -9.46437,-35.33211 z"
       id="path4374"
       inkscape:connector-curvature="0" />
    <path
       style="fill:#ff3d01;fill-opacity:1;stroke:none"
       d="m 437.41606,419.49786 c -11.98407,-10.49778 -24.90831,-17.94994 -41.63669,-24.00778 -2.6987,-0.97732 -5.44681,-1.9234 -6.10681,-2.10244 l -1.19996,-0.32568 9.43827,-35.22402 9.43823,-35.22401 7.68099,2.3416 c 20.70783,6.31277 43.68401,18.29774 61.29409,31.97263 5.93063,4.60533 16.20181,13.51446 17.38945,15.08341 l 0.7899,1.04349 -13.56154,13.67091 c -16.72313,16.85801 -37.12818,37.2125 -37.57845,37.48539 -0.18397,0.11199 -2.86052,-2.00952 -5.94748,-4.71361 z"
       id="path4376"
       inkscape:connector-curvature="0"
       inkscape:export-xdpi="155"
       inkscape:export-ydpi="155"
       inkscape:export-filename="/home/enpjp/Keys/knowledge_base_files/kb-springmoths/spring-moths/resources/colours/red-orange.png" />
    <path
       style="fill:none;stroke:#ff6200;stroke-width:0.45213166;stroke-opacity:1"
       d="m 514.605,672.87152 c -9.31211,-9.30706 -16.99397,-17.03071 -17.07072,-17.16368 -0.0768,-0.13291 2.38739,-3.01311 5.47593,-6.40043 13.20843,-14.4861 23.92211,-30.3233 32.5352,-48.09403 4.48812,-9.26003 9.68443,-22.7933 11.83832,-30.83181 l 1.03621,-3.86711 23.58316,6.31908 23.5832,6.31913 -0.32567,1.19995 c -0.83484,3.07509 -5.80366,18.01507 -7.25412,21.81139 -11.18283,29.26848 -26.0639,53.84336 -46.70159,77.12387 -4.51818,5.09672 -8.56445,9.54556 -8.99173,9.88628 -0.71397,0.56926 -2.14836,-0.75126 -17.70807,-16.30257 l -3e-5,10e-6 z"
       id="path4378"
       inkscape:connector-curvature="0" />
    <path
       style="fill:#2affd4;fill-opacity:1;stroke:#2affd4;stroke-width:0.45213166;stroke-opacity:1"
       d="m 291.8626,702.95517 c -0.81964,-0.30368 -3.88894,-1.42677 -6.8205,-2.49577 -17.65862,-6.43933 -36.99258,-17.32655 -52.87284,-29.77345 -6.59571,-5.1697 -17.35251,-14.90727 -17.07169,-15.45411 0.17681,-0.34426 51.31484,-51.53903 51.70962,-51.76699 0.11362,-0.0656 2.0393,1.53373 4.27927,3.55407 13.23392,11.93588 28.31756,20.66709 45.60998,26.40152 l 5.05114,1.67506 -9.52127,35.5337 -9.52122,35.53381 -4.67604,-1.32786 c -2.57186,-0.73034 -5.34675,-1.57632 -6.16647,-1.88002 z"
       id="path4380"
       inkscape:connector-curvature="0" />
    <path
       style="fill:#0007ff;fill-opacity:1;stroke:#002aff;stroke-width:0.45213166;stroke-opacity:1"
       d="m 209.42533,649.71562 c -17.29639,-18.56447 -32.16781,-42.66647 -40.76567,-66.06869 -2.52572,-6.87467 -5.30309,-16.01038 -5.09892,-16.77229 0.11064,-0.41295 1.33219,-1.03229 2.84374,-1.44185 37.19915,-10.0792 66.94917,-17.80873 67.73404,-17.59842 0.21365,0.0573 1.25384,2.6003 2.31141,5.65124 3.4625,9.9886 5.21512,13.81437 10.59045,23.11753 4.9316,8.53578 8.78438,13.95132 15.63903,21.98465 1.25567,1.4716 2.39544,3.04836 2.53281,3.50379 0.2784,0.9231 -0.88255,2.12042 -31.47758,32.46363 -19.08638,18.92932 -19.49295,19.314 -20.2267,19.13981 -0.26483,-0.0626 -2.102,-1.85358 -4.08261,-3.9794 z"
       id="path4382"
       inkscape:connector-curvature="0" />
    <path
       style="fill:#b600ff;fill-opacity:1;stroke:#002aff;stroke-width:0.45213166;stroke-opacity:1"
       d="m 161.08743,558.03704 c -5.27689,-23.06347 -6.29133,-47.02811 -3.00851,-71.07179 0.73787,-5.4044 3.10667,-17.76961 4.15798,-21.70484 l 0.55388,-2.07495 35.56175,9.52872 35.56168,9.52871 -0.38255,2.35493 c -0.21043,1.29522 -0.79552,4.35063 -1.30021,6.78986 -3.08338,14.90277 -2.96646,31.32515 0.34147,47.97433 0.71838,3.6155 1.21637,6.61721 1.10667,6.67047 -0.1098,0.053 -16.12555,4.35966 -35.5908,9.56971 l -35.39143,9.47285 -1.6103,-7.03809 z"
       id="path4384"
       inkscape:connector-curvature="0" />
    <path
       style="fill:#ff0075;fill-opacity:1;stroke:#002aff;stroke-width:0.45213166;stroke-opacity:1"
       d="M 242.65111,400.97617 C 229.56629,387.83793 217.9836,376.22126 216.91179,375.16136 l -1.94876,-1.92712 1.10344,-1.21722 c 2.12751,-2.34682 10.3843,-9.55368 16.0975,-14.05054 17.08157,-13.44494 36.90345,-24.34077 57.1027,-31.38853 8.94729,-3.12188 13.40716,-4.38224 13.66531,-3.86203 0.12069,0.24324 4.46009,16.31104 9.64309,35.70619 5.66691,21.20608 9.19682,35.27753 8.85476,35.29802 -1.11609,0.067 -12.19497,3.9862 -15.84783,5.60622 -13.41577,5.94984 -25.85136,14.07527 -35.49976,23.19564 -1.5298,1.44604 -2.97473,2.56457 -3.21102,2.48556 -0.23623,-0.079 -11.13532,-10.89316 -24.22011,-24.03138 z"
       id="path4386"
       inkscape:connector-curvature="0" />
    <path
       style="fill:#e29c86;fill-opacity:1;stroke:none"
       d="m 495.1933,371.14513 c -0.6541,-1.08455 -11.50944,-10.57837 -16.85609,-14.74204 -19.11142,-14.88289 -40.11629,-25.78971 -64.82101,-33.6585 l -6.14568,-1.9575 6.26586,-23.38442 6.26579,-23.38438 8.76861,2.64988 c 29.0292,8.77274 56.73624,23.30642 80.88884,42.42998 5.78235,4.57832 14.81972,12.5016 18.88657,16.55818 l 2.09631,2.09108 -17.0602,17.06982 c -9.38307,9.38838 -17.26736,17.01769 -17.52064,16.95404 -0.25333,-0.0636 -0.59901,-0.34533 -0.76836,-0.62614 z"
       id="path4388"
       inkscape:connector-curvature="0"
       inkscape:export-xdpi="155"
       inkscape:export-ydpi="155"
       inkscape:export-filename="/home/enpjp/Keys/knowledge_base_files/kb-springmoths/spring-moths/resources/colours/red-orange.png" />
    <path
       style="fill:#763c2a;fill-opacity:1;stroke:none"
       d="m 371.94024,453.04409 15.77738,-58.91271 5.26803,1.73875 c 11.14682,3.67905 20.42088,8.05476 29.39991,13.87154 8.56937,5.55137 20.17934,15.16462 19.63966,16.26197 -0.21675,0.44063 -81.88413,82.28321 -84.68326,84.86489 -1.16196,1.07166 -0.94164,0.19879 14.59792,-57.82449 z"
       id="path4390"
       inkscape:connector-curvature="0"
       inkscape:export-xdpi="155"
       inkscape:export-ydpi="155"
       inkscape:export-filename="/home/enpjp/Keys/knowledge_base_files/kb-springmoths/spring-moths/resources/colours/red-orange.png" />
    <path
       style="fill:#e2ab86;fill-opacity:1;stroke:none"
       d="m 548.01671,460.13182 c -0.21393,-0.87406 -1.43865,-4.74666 -2.72162,-8.60573 -4.63984,-13.95627 -9.18081,-24.03441 -16.71704,-37.10134 -7.81425,-13.54868 -14.49395,-22.78808 -24.51179,-33.90376 -3.03089,-3.36301 -5.78875,-6.4659 -6.12862,-6.89527 -0.56825,-0.71793 0.75496,-2.15347 16.45432,-17.85107 l 17.07223,-17.07032 2.06527,2.0156 c 7.00092,6.83243 19.91762,22.66461 27.33092,33.49982 8.37626,12.24266 17.87018,29.80207 24.10163,44.57683 3.70235,8.77826 10.89293,30.06095 10.2571,30.3588 -0.088,0.0416 -10.48458,2.83771 -23.10307,6.21424 -12.61848,3.3765 -23.1154,6.18691 -23.32656,6.24532 -0.21115,0.0584 -0.55888,-0.60899 -0.77278,-1.48311 z"
       id="path4392"
       inkscape:connector-curvature="0"
       inkscape:export-xdpi="155"
       inkscape:export-ydpi="155"
       inkscape:export-filename="/home/enpjp/Keys/knowledge_base_files/kb-springmoths/spring-moths/resources/colours/orange.png" />
    <path
       style="fill:#76482a;fill-opacity:1;stroke:none"
       d="m 357.97704,512.31721 c 0.9032,-1.30304 85.33772,-85.36892 85.65724,-85.2833 0.21161,0.0567 2.21374,2.16593 4.4492,4.68716 8.19473,9.24233 15.83988,21.11124 20.73329,32.18798 2.34535,5.3089 6.27095,16.44854 6.058,17.19071 -0.0604,0.20984 -24.8745,7.01599 -55.14285,15.12465 -63.05475,16.89182 -62.14422,16.65456 -61.75488,16.0928 z"
       id="path4394"
       inkscape:connector-curvature="0"
       inkscape:export-xdpi="155"
       inkscape:export-ydpi="155"
       inkscape:export-filename="/home/enpjp/Keys/knowledge_base_files/kb-springmoths/spring-moths/resources/colours/orange.png" />
    <path
       style="fill:#ffe601;fill-opacity:1;stroke:none"
       d="m 549.69016,561.77391 c 2.15392,-8.03849 4.42043,-22.35684 5.1636,-32.62027 1.42625,-19.69646 0.0665,-38.76875 -4.12928,-57.91831 -0.98108,-4.47769 -1.70182,-8.18863 -1.60161,-8.2465 0.10023,-0.0578 10.61401,-2.90318 23.36399,-6.32296 21.24947,-5.69948 23.21216,-6.14116 23.54645,-5.29875 0.20059,0.50543 1.48113,6.37873 2.84571,13.05178 6.22629,30.44724 6.82749,59.23299 1.88263,90.14198 -0.64202,4.01293 -3.80893,19.43571 -4.62344,22.51629 l -0.31794,1.202 -23.58318,-6.31906 -23.58321,-6.31914 1.03619,-3.86708 z"
       id="path4396"
       inkscape:connector-curvature="0" />
    <path
       inkscape:connector-curvature="0"
       style="fill:#ffc601;fill-opacity:1;stroke:none"
       d="m 547.1584,464.60275 c -0.0101,-0.003 -0.0411,0.002 -0.0526,1.1e-4 -0.10145,-0.0167 -0.252,-0.0193 -0.44283,-0.007 -0.005,7.7e-4 -0.009,-8.3e-4 -0.0141,3e-5 -0.19714,0.0129 -0.53175,0.069 -0.84007,0.11667 -0.0618,0.01 -0.13109,0.0227 -0.19723,0.0342 -1.88322,0.31051 -6.56759,1.45694 -14.0837,3.40446 -0.56313,0.14757 -0.96625,0.24711 -1.56218,0.4044 -0.0707,0.0188 -0.21817,0.0591 -0.2899,0.078 -7.02566,1.83154 -15.91199,4.18557 -29.693,7.88431 -12.34402,3.31306 -22.54571,6.08055 -22.6691,6.15098 -5.5e-4,3e-4 -8.3e-4,0.009 1.7e-4,0.0103 0,0 -0.002,1.4e-4 -0.002,1.4e-4 -0.0115,0.006 0.009,0.177 0.009,0.24507 9e-5,0.10456 -0.0108,0.1539 0.0118,0.37118 9e-4,0.008 0.003,0.0212 0.004,0.0295 0.11601,1.10417 0.49355,3.49604 0.99787,6.24447 3.28232,17.88779 3.13392,33.6836 -0.47894,51.36657 l -0.93308,4.57655 -0.0871,0.41546 9.6e-4,3.1e-4 35.20159,9.43228 0.1,0.0268 35.10488,9.40841 3.1e-4,-9.8e-4 0.1963,0.0526 0.1347,-1.2499 c 0.0235,-0.2165 0.20317,-1.08374 0.34123,-1.77895 l 1.0198,-4.52295 c 0.56808,-2.51738 1.09534,-5.13192 1.58199,-7.77544 0.45509,-2.41165 0.86135,-4.86117 1.22123,-7.34232 0.0761,-0.51181 0.15228,-1.02158 0.22425,-1.53122 0.0236,-0.17308 0.0472,-0.34573 0.0703,-0.51902 0.39891,-2.87684 0.73528,-5.71293 0.98585,-8.41842 0.20286,-2.19002 0.34121,-4.61035 0.44888,-7.10847 0.58502,-11.03007 0.28167,-22.27753 -0.94915,-33.11017 -0.0948,-0.83398 -0.23817,-1.87459 -0.41729,-3.04575 -0.003,-0.0192 -0.004,-0.0296 -0.007,-0.0484 -0.1144,-0.83739 -0.23365,-1.64471 -0.35969,-2.41563 -0.98971,-6.0541 -2.48323,-13.47864 -3.51211,-17.79467 -0.0574,-0.24722 -0.10526,-0.43148 -0.15954,-0.65742 -0.10837,-0.44075 -0.20864,-0.83757 -0.30263,-1.18716 -0.19961,-0.75607 -0.37729,-1.36701 -0.48753,-1.57638 -0.0322,-0.0619 -0.0685,-0.14983 -0.0913,-0.15617 -0.005,-6e-4 -0.015,5.9e-4 -0.0197,-9.7e-4 -8.2e-4,-2.8e-4 -0.002,-0.005 -0.003,-0.005 z"
       id="path4398"
       inkscape:export-xdpi="155"
       inkscape:export-ydpi="155"
       inkscape:export-filename="/home/enpjp/Keys/knowledge_base_files/kb-springmoths/spring-moths/resources/colours/yellow-orange.png" />
    <path
       style="fill:#e2cd86;fill-opacity:1;stroke:none"
       d="m 550.66182,557.63651 c 4.83185,-20.68553 6.08543,-43.74297 3.59314,-66.08984 -0.35515,-3.1845 -1.63412,-10.85936 -2.84211,-17.0553 -1.81444,-9.30662 -2.0659,-11.30777 -1.44635,-11.50953 1.53647,-0.50045 37.21235,-10.04134 40.88428,-10.93379 2.09923,-0.51025 4.10703,-0.84994 4.46173,-0.75492 0.67469,0.18078 3.44252,12.26779 5.1121,22.32436 5.21917,31.43776 4.43987,62.51322 -2.34641,93.56467 -0.66439,3.04005 -1.42855,6.78471 -1.69818,8.32149 l -0.49016,2.79421 -23.55297,-6.31099 -23.55292,-6.31103 1.87785,-8.03933 z"
       id="path4403"
       inkscape:connector-curvature="0"
       inkscape:export-xdpi="155"
       inkscape:export-ydpi="155"
       inkscape:export-filename="/home/enpjp/Keys/knowledge_base_files/kb-springmoths/spring-moths/resources/colours/yellow-orange.png" />
    <path
       style="fill:#76652a;fill-opacity:1;stroke:none"
       d="m 358.14684,514.1876 c 0.64251,-0.33423 115.74466,-31.15051 116.7412,-31.25511 1.41248,-0.14831 4.19883,16.60207 4.54807,27.34108 0.3378,10.38596 -1.01194,23.98212 -3.18716,32.10493 l -0.9649,3.60314 -58.82691,-15.76267 c -33.38076,-8.94431 -58.60349,-15.87889 -58.3103,-16.03137 z"
       id="path4405"
       inkscape:connector-curvature="0"
       inkscape:export-xdpi="155"
       inkscape:export-ydpi="155"
       inkscape:export-filename="/home/enpjp/Keys/knowledge_base_files/kb-springmoths/spring-moths/resources/colours/yellow-orange.png" />
    <path
       style="fill:#e2e186;fill-opacity:1;stroke:none"
       d="m 528.88242,686.30759 c -2.46581,-2.29542 -12.87682,-12.62509 -25.91568,-25.71317 -2.5867,-2.59643 -4.6598,-4.88231 -4.60688,-5.07966 0.0529,-0.19744 2.17148,-2.6962 4.70803,-5.553 20.66554,-23.27446 34.83138,-47.99738 43.77358,-76.39577 l 2.03455,-6.46124 23.07827,6.1838 23.07824,6.18381 -0.49925,1.85556 c -0.77333,2.87447 -5.03681,15.5317 -6.90502,20.5007 -9.92842,26.40667 -23.58764,49.71479 -42.2005,72.01084 -4.76681,5.7101 -13.31673,15.15504 -13.64043,15.06827 -0.0862,-0.0231 -1.39345,-1.19315 -2.90481,-2.60011 l 1.8e-4,7e-5 z"
       id="path4407"
       inkscape:connector-curvature="0"
       inkscape:export-filename="/home/enpjp/Keys/knowledge_base_files/kb-springmoths/spring-moths/resources/colours/yellow.png"
       inkscape:export-xdpi="150"
       inkscape:export-ydpi="150" />
    <path
       style="fill:#76762a;fill-opacity:1;stroke:none"
       d="m 400.6417,558.92892 c -23.44312,-23.43024 -42.7637,-42.82514 -42.93471,-43.09981 -0.1814,-0.2914 24.18294,6.06378 58.51609,15.26333 l 58.82693,15.76261 -0.96584,3.60288 c -3.03267,11.31025 -10.88368,26.91526 -19.11062,37.98351 -3.1878,4.28858 -11.00039,13.27758 -11.43812,13.16024 -0.14853,-0.0398 -19.45063,-19.24251 -42.89373,-42.67276 z"
       id="path4409"
       inkscape:connector-curvature="0"
       inkscape:export-filename="/home/enpjp/Keys/knowledge_base_files/kb-springmoths/spring-moths/resources/colours/yellow.png"
       inkscape:export-xdpi="150"
       inkscape:export-ydpi="150" />
    <path
       style="fill:#c4ff00;fill-opacity:1;stroke:none"
       d="m 413.90962,731.39639 c -3.38404,-12.68485 -6.19046,-23.22971 -6.23648,-23.4331 -0.0461,-0.20344 0.9754,-0.66684 2.26976,-1.03012 4.24723,-1.1917 15.06857,-4.90821 19.46194,-6.68403 23.37069,-9.44646 45.4144,-23.50888 63.34961,-40.41292 l 3.58233,-3.37637 1.14937,1.1967 c 0.63212,0.65812 8.29652,8.32556 17.03199,17.03868 8.73543,8.71314 15.92858,15.90609 15.98474,15.98433 0.18367,0.25591 -6.91736,6.88566 -13.04202,12.17656 -11.83452,10.22334 -22.92827,18.06811 -37.4787,26.50249 -14.1663,8.21171 -25.70944,13.64227 -40.17501,18.90075 -5.63325,2.04781 -19.16089,6.35678 -19.593,6.241 -0.0836,-0.0224 -2.92043,-10.41913 -6.30453,-23.10397 z"
       id="path4411"
       inkscape:connector-curvature="0" />
    <path
       style="fill:#c0ff00;fill-opacity:1;stroke:none"
       d="m 399.38123,677.64618 c -10.40133,-38.96745 -11.07032,-41.62826 -10.62141,-42.24628 0.21407,-0.29478 2.90141,-1.41031 5.97179,-2.47905 16.76364,-5.83501 31.62672,-14.51316 44.29334,-25.86173 3.05118,-2.73373 3.83635,-3.22666 4.50207,-2.82678 0.44347,0.26644 3.39915,2.99263 6.56812,6.05822 5.58659,5.40444 45.139,44.84352 45.3651,45.23509 0.32463,0.56228 -14.25099,13.12978 -21.13146,18.22016 -13.09134,9.68528 -29.51976,18.95394 -44.44467,25.07516 -4.37918,1.79602 -19.26321,6.89361 -21.727,7.44122 -1.02501,0.22783 -1.42427,-1.07402 -8.77588,-28.61601 z"
       id="path4413"
       inkscape:connector-curvature="0"
       inkscape:export-xdpi="155"
       inkscape:export-ydpi="155"
       inkscape:export-filename="/home/enpjp/Keys/knowledge_base_files/kb-springmoths/spring-moths/resources/colours/yellow-green.png" />
    <path
       style="fill:#cce286;fill-opacity:1;stroke:none"
       d="m 419.491,751.3811 c -8.31074,-30.90454 -11.37554,-42.41695 -11.4298,-42.93391 -0.0424,-0.40374 3.41149,-1.79879 9.6079,-3.88073 15.68756,-5.27071 25.50962,-9.75872 39.66405,-18.12358 12.43323,-7.34777 22.34936,-14.60694 32.50799,-23.79772 2.72328,-2.46387 5.31877,-4.78175 5.76769,-5.15085 0.77113,-0.63409 1.74243,0.25528 17.59115,16.10709 9.22619,9.22802 16.82136,16.85641 16.87807,16.95196 0.22415,0.37824 -2.85013,3.36214 -9.8287,9.53927 -13.9115,12.31392 -23.99975,19.52085 -41.23169,29.4554 -12.30123,7.09172 -20.58965,11.17519 -31.54821,15.54222 -9.01749,3.59352 -25.9766,9.28469 -26.91677,9.03276 -0.19221,-0.0515 -0.66994,-1.28536 -1.06168,-2.74191 z"
       id="path4415"
       inkscape:connector-curvature="0"
       inkscape:export-xdpi="155"
       inkscape:export-ydpi="155"
       inkscape:export-filename="/home/enpjp/Keys/knowledge_base_files/kb-springmoths/spring-moths/resources/colours/yellow-green.png" />
    <path
       style="fill:#63762a;fill-opacity:1;stroke:none"
       d="m 372.14804,575.63395 c -8.59134,-32.06573 -15.53119,-58.35297 -15.42186,-58.41608 0.32851,-0.18967 85.62629,85.20338 85.52556,85.62109 -0.18201,0.75495 -9.16685,8.44439 -13.99792,11.97983 -6.22818,4.55783 -15.76681,10.04871 -22.77602,13.11095 -5.63416,2.46144 -16.53291,6.32065 -17.28284,6.11972 -0.23437,-0.0628 -7.45555,-26.34982 -16.0469,-58.41553 z"
       id="path4417"
       inkscape:connector-curvature="0"
       inkscape:export-xdpi="155"
       inkscape:export-ydpi="155"
       inkscape:export-filename="/home/enpjp/Keys/knowledge_base_files/kb-springmoths/spring-moths/resources/colours/yellow-green.png" />
    <path
       style="fill:#22ff00;fill-opacity:1;stroke:none"
       d="m 297.37035,731.31345 6.26392,-23.37737 6.74123,1.48169 c 31.35833,6.89232 62.43001,6.69397 92.38143,-0.58984 1.86559,-0.45367 3.43853,-0.72979 3.49535,-0.61356 0.0567,0.11623 2.89879,10.6496 6.3154,23.40751 l 6.21203,23.19625 -1.86453,0.55457 c -3.44643,1.0251 -17.19601,3.82743 -23.8553,4.86206 -30.82981,4.78986 -63.03951,3.61196 -92.81684,-3.39422 l -9.13664,-2.14976 6.26395,-23.37733 z"
       id="path4419"
       inkscape:connector-curvature="0" />
    <path
       style="fill:#1aff00;fill-opacity:1;stroke:none"
       d="m 313.53836,670.97351 9.55121,-35.64574 1.22288,0.32767 c 7.57443,2.02958 22.8011,3.77075 32.10948,3.67175 3.35634,-0.0357 6.31291,-0.0643 6.57015,-0.0635 0.2572,8.1e-4 0.90337,-0.0523 1.43582,-0.11796 2.77645,-0.34233 5.84484,-0.64689 6.25133,-0.62043 0.25299,0.0166 3.12243,-0.47296 6.37648,-1.08762 3.25401,-0.61463 6.77201,-1.22509 7.81782,-1.3566 1.85554,-0.23328 1.91155,-0.21027 2.31899,0.9534 1.2513,3.57364 15.67745,58.44483 17.11695,65.10588 0.73552,3.40353 0.79448,4.44654 0.27224,4.81643 -0.93885,0.665 -17.62877,3.98765 -24.11084,4.80006 -22.76956,2.85373 -47.02808,1.66254 -68.87974,-3.38221 l -7.60399,-1.7555 9.55124,-35.64571 z"
       id="path4421"
       inkscape:connector-curvature="0"
       inkscape:export-xdpi="155"
       inkscape:export-ydpi="155"
       inkscape:export-filename="/home/enpjp/Keys/knowledge_base_files/kb-springmoths/spring-moths/resources/colours/green.png" />
    <path
       style="fill:#8de286;fill-opacity:1;stroke:none"
       d="m 297.33799,731.43417 6.19489,-23.1197 1.91695,0.27022 c 1.05429,0.14865 4.40413,0.81417 7.44407,1.47895 16.95263,3.70743 36.33745,5.18398 54.41324,4.1447 10.75781,-0.6185 18.27348,-1.62126 29.66788,-3.95839 4.96781,-1.01897 9.08868,-1.74687 9.15746,-1.61758 0.0689,0.1293 2.88872,10.52185 6.26653,23.09456 5.78957,21.54993 6.08559,22.88326 5.16719,23.27396 -2.04119,0.86832 -25.0426,5.22282 -31.97416,6.05309 -23.0244,2.75803 -45.02634,2.42272 -67.82883,-1.0337 -4.95663,-0.75132 -21.67285,-4.14435 -25.63734,-5.20378 l -0.9828,-0.26263 6.19492,-23.1197 z"
       id="path4423"
       inkscape:connector-curvature="0"
       inkscape:export-xdpi="155"
       inkscape:export-ydpi="155"
       inkscape:export-filename="/home/enpjp/Keys/knowledge_base_files/kb-springmoths/spring-moths/resources/colours/green.png" />
    <path
       style="fill:#31762a;fill-opacity:1;stroke:none"
       d="m 339.08237,575.67131 c 15.52967,-57.93036 15.8008,-58.88513 16.2669,-57.37932 1.15129,3.71955 30.94544,115.42252 30.90907,115.88287 -0.0223,0.28258 -2.50193,1.05257 -5.51026,1.71107 -16.40346,3.59064 -34.46986,3.55198 -51.81028,-0.11087 l -5.64834,-1.19307 15.79329,-58.91057 z"
       id="path4425"
       inkscape:connector-curvature="0"
       inkscape:export-xdpi="155"
       inkscape:export-ydpi="155"
       inkscape:export-filename="/home/enpjp/Keys/knowledge_base_files/kb-springmoths/spring-moths/resources/colours/green.png" />
    <path
       style="fill:#00ffd2;fill-opacity:1;stroke:none"
       d="m 272.93391,749.14141 c -23.41046,-8.18228 -46.59895,-20.55969 -67.10949,-35.82134 -5.46633,-4.06743 -22.07757,-18.34779 -25.04011,-21.52652 l -1.1616,-1.24638 16.34088,-16.35656 c 8.98753,-8.9961 16.73345,-16.71935 17.21328,-17.16265 l 0.87234,-0.80611 1.91297,1.94834 c 2.9441,2.99852 10.25048,9.40362 14.92764,13.08629 19.54739,15.39101 40.46532,26.39452 65.29499,34.34733 l 6.14292,1.96756 -6.24742,23.31571 -6.24742,23.31572 -5.98849,-1.67054 c -3.29366,-0.91878 -8.20342,-2.44472 -10.91046,-3.39087 z"
       id="path4427"
       inkscape:connector-curvature="0" />
    <path
       style="fill:#00ffd8;fill-opacity:1;stroke:none"
       d="m 285.85836,700.90672 c -22.55615,-8.49547 -43.59152,-21.03154 -61.37002,-36.5736 -6.61037,-5.77883 -9.39186,-8.54121 -9.22548,-9.1621 0.14043,-0.52417 50.18695,-50.83027 51.27751,-51.54352 0.2381,-0.15571 3.15302,2.02295 6.47757,4.84148 10.34447,8.77005 18.85258,14.2764 29.85697,19.32305 5.12071,2.34837 14.74041,6.06889 17.83651,6.89852 l 1.068,0.28617 -9.53716,35.59313 -9.53716,35.59312 -5.55343,-1.54722 c -3.05443,-0.85098 -8.13638,-2.52007 -11.29334,-3.70906 z"
       id="path4429"
       inkscape:connector-curvature="0"
       inkscape:export-xdpi="155"
       inkscape:export-ydpi="155"
       inkscape:export-filename="/home/enpjp/Keys/knowledge_base_files/kb-springmoths/spring-moths/resources/colours/blue-green.png" />
    <path
       style="fill:#00ffd2;fill-opacity:1;stroke:none"
       d="m 277.9466,750.52312 c -23.52214,-7.34137 -50.21321,-21.12441 -71.24661,-36.79106 -7.54919,-5.623 -26.87123,-22.39895 -26.66873,-23.15461 0.11919,-0.4449 32.66514,-32.95759 33.51835,-33.48409 0.55555,-0.34281 1.20388,0.0893 3.43163,2.2871 9.28363,9.15905 24.73231,20.70951 37.81339,28.27188 12.41718,7.17829 32.21725,15.70989 43.43822,18.71656 1.50678,0.40375 3.01847,0.93665 3.35936,1.18427 0.55433,0.40271 -0.0337,2.88883 -5.56978,23.5499 l -6.18954,23.09973 -2.05549,-0.62654 c -1.13055,-0.34454 -5.55438,-1.71853 -9.83076,-3.05319 z"
       id="path4431"
       inkscape:connector-curvature="0" />
    <path
       style="fill:#00ffd2;fill-opacity:1;stroke:none"
       d="m 314.88475,631.88408 c -12.25581,-4.37164 -24.16434,-10.6254 -33.54075,-17.61386 -3.81228,-2.84142 -12.80542,-10.55622 -13.33242,-11.43731 -0.1835,-0.30584 83.89218,-84.97001 85.18449,-85.78104 0.11988,-0.075 -6.84727,26.23063 -15.48239,58.45736 l -15.70022,58.59404 -2.70986,-0.80481 c -1.49045,-0.44261 -3.47892,-1.07907 -4.41885,-1.41438 z"
       id="path4433"
       inkscape:connector-curvature="0" />
    <path
       style="fill:#86e2d0;fill-opacity:1;stroke:none"
       d="m 279.64939,751.15599 c -23.41109,-7.15062 -51.5219,-21.49557 -72.06098,-36.77281 -8.546,-6.35659 -27.78145,-22.96869 -27.55865,-23.80013 0.0921,-0.34392 29.28361,-29.6629 32.44465,-32.58644 1.64928,-1.52536 1.83541,-1.54475 2.87936,-0.30028 0.99313,1.18399 11.30263,10.28841 14.8183,13.08629 19.28081,15.34414 41.16169,26.92282 66.08924,34.97238 l 5.81587,1.87805 -6.11831,23.28589 -6.11834,23.28594 -3.36488,-0.99582 c -1.85074,-0.54768 -4.92249,-1.47158 -6.82626,-2.05307 z"
       id="path4435"
       inkscape:connector-curvature="0"
       inkscape:export-xdpi="155"
       inkscape:export-ydpi="155"
       inkscape:export-filename="/home/enpjp/Keys/knowledge_base_files/kb-springmoths/spring-moths/resources/colours/blue-green.png" />
    <path
       style="fill:#2a766b;fill-opacity:1;stroke:none"
       d="m 318.16076,632.7597 c -12.83672,-4.18817 -26.79765,-11.30367 -36.85952,-18.78632 -1.93202,-1.43674 -5.67292,-4.52717 -8.31316,-6.8675 l -4.80035,-4.25529 3.31152,-3.45282 c 8.41494,-8.77401 79.71634,-80.44358 80.5413,-80.9572 0.76295,-0.47501 -5.27264,23.2778 -17.70049,69.65907 -11.66986,43.55259 -12.36613,45.98844 -13.06923,45.71806 -0.40844,-0.15707 -1.80799,-0.63315 -3.11007,-1.058 z"
       id="path4437"
       inkscape:connector-curvature="0"
       inkscape:export-xdpi="155"
       inkscape:export-ydpi="155"
       inkscape:export-filename="/home/enpjp/Keys/knowledge_base_files/kb-springmoths/spring-moths/resources/colours/blue-green.png" />
    <path
       style="fill:#002efb;fill-opacity:1;stroke:none"
       d="m 175.34979,686.20572 c -13.88516,-14.5194 -24.67704,-29.0527 -35.44447,-47.73262 -10.84237,-18.80995 -17.30872,-33.72446 -23.37148,-53.90589 l -1.59466,-5.30817 23.31427,-6.24368 c 12.82284,-3.43401 23.41328,-6.2171 23.53427,-6.18466 0.12094,0.0325 0.80243,2.05806 1.5143,4.50144 4.4952,15.42928 10.9384,29.99004 20.15615,45.55018 7.36632,12.43478 15.19147,22.95365 24.78779,33.32064 2.46264,2.66037 4.52661,4.90422 4.58662,4.98624 0.0601,0.0821 -7.01237,7.2664 -15.7163,15.96519 -8.70397,8.6989 -16.42203,16.4179 -17.15132,17.15346 l -1.32592,1.33734 -3.28925,-3.43947 z"
       id="path4439"
       inkscape:connector-curvature="0" />
    <path
       style="fill:#012bff;fill-opacity:1;stroke:none"
       d="m 209.95606,650.37121 c -13.47788,-14.06142 -27.63291,-35.28633 -36.26044,-54.37133 -4.58181,-10.13538 -10.58172,-27.45758 -10.11451,-29.20127 0.20129,-0.75122 -0.37087,-0.58377 27.42742,-8.02781 25.31237,-6.77838 42.42841,-11.12441 43.10118,-10.94414 0.24929,0.0668 1.50051,3.08764 2.78061,6.71312 3.42097,9.68854 5.00354,13.09753 10.3932,22.38789 4.46784,7.70132 9.67145,14.93805 16.23865,22.58315 1.12603,1.31088 1.9762,2.65808 1.88927,2.99388 -0.18202,0.70253 -8.43641,9.09849 -28.78466,29.27768 -19.87961,19.71449 -22.40341,22.11906 -23.03719,21.94921 -0.30529,-0.0818 -1.94039,-1.59396 -3.63353,-3.36038 z"
       id="path4441"
       inkscape:connector-curvature="0"
       inkscape:export-xdpi="155"
       inkscape:export-ydpi="155"
       inkscape:export-filename="/home/enpjp/Keys/knowledge_base_files/kb-springmoths/spring-moths/resources/colours/blue.png" />
    <path
       style="fill:#002efb;fill-opacity:1;stroke:none"
       d="m 261.99355,596.4424 c -8.11675,-9.22114 -15.53359,-20.78561 -20.44478,-31.87788 -2.01475,-4.55055 -6.50354,-17.3386 -6.15228,-17.5273 0.60668,-0.32591 116.61538,-31.2716 116.69748,-31.12943 0.13468,0.23325 -85.18158,85.61081 -85.48613,85.5476 -0.13579,-0.0278 -2.21219,-2.28405 -4.61429,-5.01299 z"
       id="path4443"
       inkscape:connector-curvature="0" />
    <path
       style="fill:#869ee2;fill-opacity:1;stroke:none"
       d="m 172.74386,683.10768 c -22.29312,-24.27867 -41.24789,-55.64096 -51.695,-85.5337 -2.64173,-7.55901 -5.9258,-18.02623 -5.69318,-18.1459 0.84335,-0.4338 45.80561,-12.29718 46.203,-12.19069 0.18867,0.0505 0.76313,1.52098 1.27674,3.26761 4.70457,15.99973 10.7419,29.59879 20.46665,46.10099 7.27597,12.3468 13.01756,20.28662 22.15058,30.63119 3.75257,4.25032 6.8879,7.80888 6.9675,7.90787 0.0795,0.099 -6.43673,6.79031 -14.48065,14.86953 -8.04393,8.07923 -15.6567,15.72771 -16.9172,16.9966 -1.26059,1.26889 -2.38787,2.27211 -2.50518,2.22938 -0.11725,-0.0427 -2.71521,-2.8025 -5.77326,-6.13288 z"
       id="path4445"
       inkscape:connector-curvature="0"
       inkscape:export-xdpi="155"
       inkscape:export-ydpi="155"
       inkscape:export-filename="/home/enpjp/Keys/knowledge_base_files/kb-springmoths/spring-moths/resources/colours/blue.png" />
    <path
       style="fill:#2a3776;fill-opacity:1;stroke:none"
       d="m 262.34603,596.49659 c -2.06423,-2.38459 -5.22225,-6.3207 -7.01789,-8.74695 -4.19644,-5.67026 -11.40822,-18.14293 -13.81768,-23.89753 -2.05447,-4.90673 -5.942,-15.91355 -5.80067,-16.42346 0.0492,-0.17581 0.71073,-0.48459 1.47109,-0.68617 0.76037,-0.2016 8.64826,-2.32736 17.52863,-4.72392 19.34,-5.21936 68.05431,-18.20941 84.08083,-22.42082 6.3127,-1.65882 11.56001,-2.8734 11.66068,-2.69901 0.18469,0.3198 -8.73469,9.38235 -41.45417,42.11984 -31.06022,31.0773 -41.94457,41.80257 -42.42815,41.80816 -0.25821,0.003 -2.15844,-1.94556 -4.22266,-4.33014 z"
       id="path4447"
       inkscape:connector-curvature="0"
       inkscape:export-xdpi="155"
       inkscape:export-ydpi="155"
       inkscape:export-filename="/home/enpjp/Keys/knowledge_base_files/kb-springmoths/spring-moths/resources/colours/blue.png" />
    <path
       style="fill:#cb00ff;fill-opacity:1;stroke:none"
       d="m 113.14271,571.93443 c -8.88799,-37.10085 -9.00816,-75.54593 -0.35507,-113.60481 l 1.8307,-8.05198 23.58289,6.31907 23.58296,6.31901 -1.93326,8.25853 c -4.76668,20.3628 -6.07682,43.65306 -3.6639,65.13473 0.79041,7.03697 2.98852,19.5714 4.34967,24.80356 0.57596,2.21387 0.88569,4.12388 0.68829,4.24446 -0.63343,0.38685 -45.92996,12.42007 -46.33963,12.31031 -0.21702,-0.0582 -1.00121,-2.63796 -1.74265,-5.73288 z"
       id="path4449"
       inkscape:connector-curvature="0" />
    <path
       style="fill:#7800ff;fill-opacity:1;stroke:none"
       d="m 161.52096,558.24707 c -6.54186,-28.59895 -6.53154,-58.01652 0.031,-88.02129 l 1.42647,-6.52199 35.18427,9.42761 35.18426,9.42759 -0.19693,1.70251 c -0.10837,0.93639 -0.60139,3.70054 -1.09572,6.14255 -3.30065,16.30631 -3.18713,30.50428 0.40379,50.53339 l 0.85754,4.783 -3.13672,0.86384 c -12.0385,3.31531 -65.82796,17.65898 -66.46407,17.72351 -0.6217,0.063 -1.08723,-1.22293 -2.19387,-6.06069 z"
       id="path4451"
       inkscape:connector-curvature="0"
       inkscape:export-xdpi="155"
       inkscape:export-ydpi="155"
       inkscape:export-filename="/home/enpjp/Keys/knowledge_base_files/kb-springmoths/spring-moths/resources/colours/blue-purple.png" />
    <path
       style="fill:#cb00ff;fill-opacity:1;stroke:none"
       d="m 233.32072,538.15938 c -3.39565,-17.59046 -3.20135,-33.12594 0.6421,-51.33965 l 0.9115,-4.3196 58.81526,15.75954 c 32.53109,8.7167 58.58515,15.87646 58.30043,16.02119 -0.35516,0.18057 -111.00803,29.85711 -116.8432,31.33679 -0.20248,0.0513 -1.02429,-3.30487 -1.82609,-7.45827 z"
       id="path4453"
       inkscape:connector-curvature="0" />
    <path
       style="fill:#b186e2;fill-opacity:1;stroke:none"
       d="m 113.60959,572.99421 c -1.52455,-5.79455 -4.19516,-20.2265 -5.0909,-27.51151 -3.50615,-28.51507 -2.22978,-55.41225 4.04429,-85.22398 0.92319,-4.38655 1.79327,-8.41885 1.93346,-8.96052 l 0.25459,-0.98499 23.33006,6.25129 23.33007,6.25127 -0.49539,2.79277 c -0.27245,1.53603 -1.10825,5.49208 -1.85729,8.79129 -2.75188,12.12038 -4.41537,29.42356 -4.16353,43.30775 0.24266,13.37684 1.53531,24.32401 4.69279,39.74206 l 1.5942,7.78435 -6.04822,1.68052 c -12.8082,3.55868 -39.51202,10.48192 -39.96077,10.36023 -0.25895,-0.0704 -0.96271,-1.99655 -1.56369,-4.28066 z"
       id="path4455"
       inkscape:connector-curvature="0"
       inkscape:export-xdpi="155"
       inkscape:export-ydpi="155"
       inkscape:export-filename="/home/enpjp/Keys/knowledge_base_files/kb-springmoths/spring-moths/resources/colours/blue-purple.png" />
    <path
       style="fill:#4e2a76;fill-opacity:1;stroke:none"
       d="m 234.25427,541.92048 c -4.18943,-18.72704 -4.09101,-36.7075 0.31225,-57.04567 l 0.50289,-2.32295 35.35778,9.54211 c 19.44678,5.24811 45.5604,12.40333 58.03022,15.90049 l 22.67239,6.35844 -32.82703,8.82946 c -49.1295,13.21434 -82.03047,21.99148 -82.69709,22.06146 -0.3549,0.0373 -0.89899,-1.30072 -1.35147,-3.32328 z"
       id="path4457"
       inkscape:connector-curvature="0"
       inkscape:export-xdpi="155"
       inkscape:export-ydpi="155"
       inkscape:export-filename="/home/enpjp/Keys/knowledge_base_files/kb-springmoths/spring-moths/resources/colours/blue-purple.png" />
    <path
       style="fill:#ff00f7;fill-opacity:1;stroke:none"
       d="m 117.2929,441.5157 c 9.97324,-32.23628 25.32213,-60.67441 46.53125,-86.21208 5.86601,-7.06324 14.3879,-16.24028 14.9428,-16.09162 0.28101,0.0753 24.05145,23.65571 34.03463,33.76252 0.14184,0.14367 -0.91358,1.46838 -2.34549,2.94383 -20.47329,21.09566 -37.51677,50.00815 -45.98283,78.00523 l -2.45505,8.1187 -23.5829,-6.31902 -23.58293,-6.31901 2.44052,-7.88855 z"
       id="path4459"
       inkscape:connector-curvature="0" />
    <path
       style="fill:#ff00f7;fill-opacity:1;stroke:none"
       d="m 164.97359,455.69588 c 9.3065,-29.40371 24.79139,-56.1982 44.56379,-77.11156 3.19491,-3.37926 3.63979,-3.69656 4.67456,-3.33408 0.62898,0.22028 4.17284,3.36744 7.87526,6.9936 7.8015,7.64076 43.52367,43.33607 43.73496,43.70209 0.0783,0.13562 -2.20744,3.00524 -5.07942,6.37701 -10.28876,12.07925 -17.75887,24.8181 -22.89221,39.0386 -1.10159,3.05164 -2.3852,6.5518 -2.85241,7.77821 l -0.8495,2.22982 -35.62888,-9.54677 -35.62889,-9.54668 2.08271,-6.58024 z"
       id="path4461"
       inkscape:connector-curvature="0" />
    <path
       style="fill:#ff00f7;fill-opacity:1;stroke:none"
       d="m 236.55362,477.21617 c 5.70117,-17.5719 14.3519,-32.75479 26.15449,-45.9038 l 3.99316,-4.44868 1.16014,1.1735 c 0.63808,0.64543 19.85374,19.84502 42.70145,42.66574 22.84776,22.8207 41.68415,41.70608 41.85869,41.96748 0.1745,0.26145 -26.1466,-6.61566 -58.49139,-15.28245 l -58.80868,-15.75773 1.43214,-4.41406 z"
       id="path4463"
       inkscape:connector-curvature="0" />
    <path
       style="fill:#ff00f7;fill-opacity:1;stroke:none"
       d="m 116.73604,443.70688 c 11.05964,-34.52291 24.58321,-60.27471 44.77617,-85.26334 7.5493,-9.34215 16.40354,-18.99153 17.22472,-18.7715 0.24276,0.0651 2.12159,1.75893 4.1751,3.76416 4.83083,4.71722 27.87474,27.65471 28.9328,28.79921 l 0.81059,0.87686 -6.6188,7.46532 c -18.68129,21.0705 -33.42802,46.61588 -40.77372,70.63217 -1.05531,3.45019 -2.29937,7.2769 -2.76456,8.50386 l -0.84573,2.23082 -23.37304,-6.26277 -23.37295,-6.26278 1.82984,-5.71179 z"
       id="path4465"
       inkscape:connector-curvature="0" />
    <path
       style="fill:#ae00ff;fill-opacity:1;stroke:none"
       d="m 163.90469,459.09623 c 2.04444,-7.61842 7.1997,-21.07217 11.83432,-30.88188 7.98805,-16.90768 19.68195,-34.27312 32.44341,-48.17868 5.78692,-6.30569 5.27036,-6.28622 11.33539,-0.42765 5.97195,5.76866 45.85066,45.53385 46.19758,46.06608 0.16001,0.24555 -1.91204,3.05425 -4.60785,6.24589 -11.22484,13.28941 -19.05502,26.92935 -24.20887,42.17116 -0.75828,2.24255 -1.6836,4.78549 -2.05632,5.65107 l -0.67766,1.57374 -35.55474,-9.52686 -35.55475,-9.52687 0.84937,-3.16601 z"
       id="path4467"
       inkscape:connector-curvature="0"
       inkscape:export-xdpi="155"
       inkscape:export-ydpi="155"
       inkscape:export-filename="/home/enpjp/Keys/knowledge_base_files/kb-springmoths/spring-moths/resources/colours/purple.png" />
    <path
       style="fill:#5e2a76;fill-opacity:1;stroke:none"
       d="m 237.10956,476.1949 c 3.73022,-11.25705 8.31298,-20.65604 14.98774,-30.7391 5.2925,-7.99492 14.10495,-18.46296 14.99732,-17.81475 0.54426,0.39529 64.79229,64.53723 78.7401,78.61002 l 5.97037,6.02385 -22.65759,-5.76129 c -12.46172,-3.16872 -38.67687,-10.0534 -58.25596,-15.29934 l -35.59832,-9.53805 1.81634,-5.48134 z"
       id="path4469"
       inkscape:connector-curvature="0"
       inkscape:export-xdpi="155"
       inkscape:export-ydpi="155"
       inkscape:export-filename="/home/enpjp/Keys/knowledge_base_files/kb-springmoths/spring-moths/resources/colours/purple.png" />
    <path
       style="fill:#c586e2;fill-opacity:1;stroke:none"
       d="m 115.48696,447.58493 c 0.99619,-3.68311 5.40222,-16.60224 7.71634,-22.6237 10.24299,-26.65305 24.64375,-50.82171 43.05047,-72.25117 6.76836,-7.8799 11.87899,-13.19991 12.51627,-13.02913 0.26983,0.0723 3.81931,3.40628 7.88784,7.40896 11.10335,10.92351 25.07373,24.88076 25.54398,25.52007 0.31132,0.42321 -0.92311,2.07246 -4.92536,6.58055 -19.78403,22.28424 -34.30376,47.27945 -42.09511,72.46541 -1.13991,3.6849 -2.39823,7.50784 -2.79625,8.49533 l -0.72363,1.79542 -23.33805,-6.25338 -23.33804,-6.25342 0.50118,-1.85505 z"
       id="path4471"
       inkscape:connector-curvature="0"
       inkscape:export-xdpi="155"
       inkscape:export-ydpi="155"
       inkscape:export-filename="/home/enpjp/Keys/knowledge_base_files/kb-springmoths/spring-moths/resources/colours/purple.png" />
    <path
       style="fill:#ff0074;fill-opacity:1;stroke:none"
       d="m 196.64504,354.91729 -17.03675,-17.04189 4.04141,-3.80562 c 15.36291,-14.46665 28.45074,-24.17204 47.19439,-34.99739 16.97465,-9.80379 29.09862,-15.27089 46.72352,-21.06983 4.88444,-1.60708 9.67557,-3.12996 10.64688,-3.38417 l 1.76605,-0.4622 6.28152,23.47236 c 5.55855,20.77084 6.18073,23.50047 5.40564,23.71677 -5.02101,1.40132 -13.13613,4.0998 -18.19489,6.05025 -23.89253,9.21194 -48.13765,24.43456 -65.54819,41.15534 -2.04064,1.95978 -3.83012,3.52839 -3.97656,3.48578 -0.14649,-0.0423 -7.93276,-7.74634 -17.30302,-17.1194 z"
       id="path4473"
       inkscape:connector-curvature="0" />
    <path
       style="fill:#ff0074;fill-opacity:1;stroke:none"
       d="m 253.28522,410.99548 c -7.50592,-7.49287 -19.07586,-19.06949 -25.71093,-25.72577 l -12.06384,-12.10243 1.67072,-1.66053 c 0.91891,-0.91331 3.60176,-3.35484 5.9619,-5.4256 16.63406,-14.59436 33.37141,-25.25937 53.38279,-34.01533 6.97233,-3.05077 24.6125,-9.213 25.609,-8.94601 0.31722,0.085 2.9934,9.17488 5.94694,20.19972 11.1549,41.63804 13.27121,50.11879 12.51808,50.16399 -0.29095,0.0175 -3.60871,1.13656 -7.37289,2.48689 -15.32854,5.49891 -29.21692,13.74354 -41.67648,24.74069 -2.12565,1.87618 -4.03434,3.5229 -4.24152,3.65945 -0.20719,0.13659 -6.51789,-5.88226 -14.02377,-13.37507 z"
       id="path4475"
       inkscape:connector-curvature="0"
       inkscape:export-xdpi="155"
       inkscape:export-ydpi="155"
       inkscape:export-filename="/home/enpjp/Keys/knowledge_base_files/kb-springmoths/spring-moths/resources/colours/red-purple.png" />
    <path
       style="fill:#ff0074;fill-opacity:1;stroke:none"
       d="m 310.76623,469.07056 c -23.13696,-23.18253 -42.30108,-42.3875 -42.58703,-42.67774 -0.40875,-0.41494 0.46328,-1.40122 4.08141,-4.61646 11.50793,-10.22643 23.97375,-17.86826 37.99347,-23.29093 5.72668,-2.21504 11.86019,-4.22315 11.98886,-3.92527 0.0644,0.14917 30.54095,114.06369 31.1804,116.54558 0.0534,0.2073 -0.0574,0.31809 -0.24638,0.24593 -0.18885,-0.0722 -19.27381,-19.09863 -42.41075,-42.28117 z"
       id="path4477"
       inkscape:connector-curvature="0" />
    <path
       style="fill:#e286b0;fill-opacity:1;stroke:none"
       d="m 210.79513,368.75728 c -1.42137,-1.42103 -8.82013,-8.79021 -16.44171,-16.37605 -7.62152,-7.58584 -13.98493,-13.98164 -14.1409,-14.21283 -0.30473,-0.45181 6.4478,-6.83868 14.24642,-13.47498 21.09396,-17.95005 49.73403,-34.60319 75.19937,-43.72556 8.22571,-2.94668 20.06364,-6.73887 20.19843,-6.47041 0.24194,0.48205 9.8194,36.69861 10.80477,40.85786 0.61377,2.5907 1.03278,4.98513 0.93106,5.32088 -0.10182,0.33574 -2.69455,1.37189 -5.7619,2.30247 -28.23258,8.56554 -57.10127,25.50491 -79.10277,46.41542 -1.32069,1.2552 -2.61437,2.20667 -2.87486,2.11445 -0.26051,-0.0922 -1.63657,-1.33025 -3.05791,-2.75125 z"
       id="path4479"
       inkscape:connector-curvature="0"
       inkscape:export-xdpi="155"
       inkscape:export-ydpi="155"
       inkscape:export-filename="/home/enpjp/Keys/knowledge_base_files/kb-springmoths/spring-moths/resources/colours/red-purple.png" />
    <path
       style="fill:#762a4d;fill-opacity:1;stroke:none"
       d="m 335.36525,493.38811 c -43.18983,-43.1198 -67.15727,-67.25523 -67.07862,-67.54876 0.15677,-0.58505 9.70334,-8.72072 13.71634,-11.68915 6.47246,-4.78774 18.80734,-11.6153 26.59376,-14.72019 7.18396,-2.86461 12.6216,-4.73376 13.2511,-4.555 0.28242,0.0798 30.88225,113.61187 31.01496,115.07129 0.0219,0.23911 -0.12346,0.38803 -0.32272,0.33094 -0.1992,-0.0575 -7.92792,-7.65717 -17.17482,-16.88913 z"
       id="path4481"
       inkscape:connector-curvature="0"
       inkscape:export-xdpi="155"
       inkscape:export-ydpi="155"
       inkscape:export-filename="/home/enpjp/Keys/knowledge_base_files/kb-springmoths/spring-moths/resources/colours/red-purple.png" />
    <path
       style="fill:#ff0007;fill-opacity:1;stroke:none"
       d="m 303.75773,320.13263 c -0.10871,-0.33309 -2.95589,-10.82427 -6.3271,-23.31367 -3.75335,-13.90494 -5.93888,-22.85478 -5.63779,-23.08658 0.91444,-0.70394 22.0395,-4.95945 29.61511,-5.96578 22.65554,-3.00941 43.95957,-3.07429 66.05335,-0.20115 7.89401,1.02655 20.22001,3.33883 25.96079,4.87006 l 5.13307,1.36915 -6.24752,23.31612 -6.24756,23.3161 -5.86306,-1.26505 c -17.58964,-3.79513 -33.18211,-5.38273 -49.70242,-5.06056 -13.65757,0.26632 -31.02808,2.59213 -43.40409,5.81151 -2.23975,0.58268 -3.19166,0.64261 -3.33285,0.2099 z"
       id="path4483"
       inkscape:connector-curvature="0" />
    <path
       style="fill:#ff0000;fill-opacity:1;stroke:none"
       d="m 316.09526,366.49374 c -9.279,-34.67989 -11.43853,-43.19831 -11.18825,-44.13245 0.14589,-0.54444 1.71937,-1.09141 5.29061,-1.83892 5.20595,-1.08983 14.26841,-2.78586 16.87815,-3.15876 0.80308,-0.11476 2.50061,-0.36628 3.77228,-0.55892 1.2717,-0.19265 2.56977,-0.28119 2.88466,-0.19682 0.31478,0.0844 0.80629,0.0275 1.0921,-0.12637 1.70186,-0.91618 23.97426,-1.55754 30.6383,-0.88231 0.75191,0.0762 1.69017,0.112 2.08503,0.0796 0.39487,-0.0324 1.63501,0.0559 2.75588,0.19636 1.12086,0.14047 2.45013,0.28923 2.95394,0.33066 0.50382,0.0414 1.7173,0.16549 2.69671,0.27567 0.97937,0.11021 2.3638,0.25141 3.07646,0.31391 0.71267,0.0625 2.15571,0.24344 3.20673,0.4022 1.05103,0.15883 2.82331,0.42114 3.93844,0.58303 4.29724,0.62389 6.73251,1.09372 13.24095,2.55451 l 6.73329,1.51129 -9.52749,35.55708 c -8.99316,33.56286 -9.57079,35.54705 -10.29876,35.37835 -1.18329,-0.27433 -8.07782,-1.54215 -10.59489,-1.94838 -2.80345,-0.45242 -5.78868,-0.83723 -9.95394,-1.2831 -9.84295,-1.05372 -24.27743,-0.0999 -36.46475,2.40944 -2.98181,0.61394 -5.5867,1.07199 -5.78863,1.01787 -0.20189,-0.0541 -3.54397,-11.97184 -7.42682,-26.48384 z"
       id="path4485"
       inkscape:connector-curvature="0"
       inkscape:export-xdpi="155"
       inkscape:export-ydpi="155"
       inkscape:export-filename="/home/enpjp/Keys/knowledge_base_files/kb-springmoths/spring-moths/resources/colours/red.png" />
    <path
       style="fill:#762a2a;fill-opacity:1;stroke:none"
       d="m 339.22596,452.82104 c -8.56238,-31.93675 -15.58827,-58.25389 -15.61311,-58.48255 -0.0681,-0.62657 14.12722,-3.27883 20.77344,-3.88133 11.27796,-1.0223 24.99889,-0.18238 36.80825,2.25331 l 5.21192,1.07497 -15.69666,58.58058 c -8.63314,32.21933 -15.74597,58.56738 -15.80633,58.55122 -0.0604,-0.0162 -7.11522,-26.15947 -15.67751,-58.0962 z"
       id="path4487"
       inkscape:connector-curvature="0"
       inkscape:export-xdpi="155"
       inkscape:export-ydpi="155"
       inkscape:export-filename="/home/enpjp/Keys/knowledge_base_files/kb-springmoths/spring-moths/resources/colours/red.png" />
    <path
       style="fill:#e28686;fill-opacity:1;stroke:none"
       d="m 298.9641,303.01861 c -5.96515,-22.13745 -7.44786,-28.25881 -6.99562,-28.88138 0.53503,-0.73651 24.13305,-5.34733 32.67847,-6.38504 29.15027,-3.53975 56.33236,-2.06501 87.08435,4.7248 l 6.51851,1.43926 -6.20891,23.17208 -6.20894,23.17206 -1.47759,-0.16298 c -0.81269,-0.0896 -3.96515,-0.70567 -7.0055,-1.36887 -28.14384,-6.13965 -58.7334,-6.04859 -86.52289,0.25757 -3.34378,0.75882 -6.34822,1.30764 -6.67665,1.21962 -0.32842,-0.088 -2.66177,-7.82215 -5.18523,-17.18712 z"
       id="path4489"
       inkscape:connector-curvature="0"
       inkscape:export-xdpi="155"
       inkscape:export-ydpi="155"
       inkscape:export-filename="/home/enpjp/Keys/knowledge_base_files/kb-springmoths/spring-moths/resources/colours/red.png" />
    <path
       style="fill:#000000;fill-opacity:0;stroke:none"
       d="m 348.33088,485.90434 c -11.31931,-42.03821 -24.1873,-90.34611 -24.26629,-91.09849 -0.13892,-1.3233 16.83441,-4.17295 26.76584,-4.49375 9.47279,-0.30596 20.35508,0.67417 31.87569,2.87106 l 3.67398,0.70054 -12.26213,45.52281 c -6.74408,25.03753 -13.87404,51.05722 -15.84427,57.82149 l -3.58219,12.29871 -6.36062,-23.62235 z"
       id="path4491"
       inkscape:connector-curvature="0" />
  </g>
</svg>
