<?xml version="1.0" encoding="UTF-8" standalone="no"?>
<!-- Created with Inkscape (http://www.inkscape.org/) -->

<svg
   xmlns:dc="http://purl.org/dc/elements/1.1/"
   xmlns:cc="http://creativecommons.org/ns#"
   xmlns:rdf="http://www.w3.org/1999/02/22-rdf-syntax-ns#"
   xmlns:svg="http://www.w3.org/2000/svg"
   xmlns="http://www.w3.org/2000/svg"
   xmlns:sodipodi="http://sodipodi.sourceforge.net/DTD/sodipodi-0.dtd"
   xmlns:inkscape="http://www.inkscape.org/namespaces/inkscape"
   width="346.43695"
   height="269.34006"
   id="svg2"
   version="1.1"
   inkscape:version="0.48.3.1 r9886"
   sodipodi:docname="fore_wing_shape.svg"
   inkscape:export-filename="/home/enpjp/Keys/knowledge_base_files/kb-springmoths/spring-moths/resources/fore_wing_shape_very_narrow.png"
   inkscape:export-xdpi="150"
   inkscape:export-ydpi="150">
  <defs
     id="defs4" />
  <sodipodi:namedview
     id="base"
     pagecolor="#ffffff"
     bordercolor="#666666"
     borderopacity="1.0"
     inkscape:pageopacity="0.0"
     inkscape:pageshadow="2"
     inkscape:zoom="1.516032"
     inkscape:cx="58.700496"
     inkscape:cy="141.56534"
     inkscape:document-units="px"
     inkscape:current-layer="layer1"
     showgrid="false"
     inkscape:window-width="1282"
     inkscape:window-height="840"
     inkscape:window-x="65"
     inkscape:window-y="24"
     inkscape:window-maximized="0"
     fit-margin-top="10"
     fit-margin-left="10"
     fit-margin-right="10"
     fit-margin-bottom="10"
     units="mm" />
  <metadata
     id="metadata7">
    <rdf:RDF>
      <cc:Work
         rdf:about="">
        <dc:format>image/svg+xml</dc:format>
        <dc:type
           rdf:resource="http://purl.org/dc/dcmitype/StillImage" />
        <dc:title></dc:title>
      </cc:Work>
    </rdf:RDF>
  </metadata>
  <g
     inkscape:label="Layer 1"
     inkscape:groupmode="layer"
     id="layer1"
     transform="translate(-316.212,-197.44462)">
    <path
       style="fill:#cccccc;stroke:#000000;stroke-width:0.28707439px;stroke-linecap:butt;stroke-linejoin:miter;stroke-opacity:1"
       d="m 587.77271,253.93263 c -67.83642,-2.41544 -144.79005,-6.34908 -212.62646,-3.66008 -34.07709,6.09838 -24.84403,20.26949 -18.88565,28.31748 54.75503,1.61726 172.73643,0.361 205.13732,-3.75639 l 25.72356,-16.66301 z"
       id="path3755"
       inkscape:connector-curvature="0"
       sodipodi:nodetypes="cccccc"
       inkscape:export-filename="/home/enpjp/Keys/knowledge_base_files/kb-springmoths/spring-moths/resources/fore_wing_shape_very_broad.png"
       inkscape:export-xdpi="150"
       inkscape:export-ydpi="150" />
    <path
       sodipodi:type="arc"
       style="fill:#cccccc;fill-opacity:1;stroke:#000000;stroke-width:0.49606299;stroke-miterlimit:4;stroke-opacity:1;stroke-dasharray:none;stroke-dashoffset:0"
       id="path3763"
       sodipodi:cx="616.27802"
       sodipodi:cy="334.91339"
       sodipodi:rx="32.078537"
       sodipodi:ry="96.235611"
       d="m 648.35655,334.91339 c 0,53.14946 -14.36205,96.23561 -32.07853,96.23561 -17.71649,0 -32.07854,-43.08615 -32.07854,-96.23561 0,-53.14946 14.36205,-96.23561 32.07854,-96.23561 17.71648,0 32.07853,43.08615 32.07853,96.23561 z"
       transform="matrix(0.66732755,0,0,1,194.34707,0)" />
    <path
       sodipodi:type="arc"
       style="fill:#cccccc;fill-opacity:1;stroke:#000000;stroke-width:0.49606299;stroke-miterlimit:4;stroke-opacity:1;stroke-dasharray:none;stroke-dashoffset:0"
       id="path3765"
       sodipodi:cx="613.50201"
       sodipodi:cy="243.61293"
       sodipodi:rx="33.620773"
       sodipodi:ry="30.844746"
       d="m 647.12279,243.61293 c 0,17.03508 -15.05254,30.84475 -33.62078,30.84475 -18.56824,0 -33.62077,-13.80967 -33.62077,-30.84475 0,-17.03508 15.05253,-30.84475 33.62077,-30.84475 18.56824,0 33.62078,13.80967 33.62078,30.84475 z"
       transform="matrix(0.63643047,0,0,1,215.14541,26.526482)" />
    <path
       sodipodi:type="arc"
       style="fill:#cccccc;fill-opacity:1;stroke:#000000;stroke-width:0.49606299;stroke-miterlimit:4;stroke-opacity:1;stroke-dasharray:none;stroke-dashoffset:0"
       id="path3769"
       sodipodi:cx="608.87531"
       sodipodi:cy="237.44398"
       sodipodi:rx="9.8703184"
       sodipodi:ry="5.5520544"
       d="m 618.74562,237.44398 c 0,3.06632 -4.41909,5.55206 -9.87031,5.55206 -5.45123,0 -9.87032,-2.48574 -9.87032,-5.55206 0,-3.06631 4.41909,-5.55205 9.87032,-5.55205 5.45122,0 9.87031,2.48574 9.87031,5.55205 z"
       transform="translate(-2.4675797,1.2337899)" />
    <path
       sodipodi:type="arc"
       style="fill:#000000;fill-opacity:1;stroke:#000000;stroke-width:0.49606299;stroke-miterlimit:4;stroke-opacity:1;stroke-dasharray:none;stroke-dashoffset:0"
       id="path3771"
       sodipodi:cx="575.56299"
       sodipodi:cy="228.80745"
       sodipodi:rx="3.0844746"
       sodipodi:ry="4.3182645"
       d="m 578.64746,228.80745 c 0,2.38491 -1.38096,4.31826 -3.08447,4.31826 -1.70351,0 -3.08448,-1.93335 -3.08448,-4.31826 0,-2.38491 1.38097,-4.31827 3.08448,-4.31827 1.70351,0 3.08447,1.93336 3.08447,4.31827 z"
       transform="translate(21.150683,10.094644)" />
    <path
       transform="translate(38.936485,10.334993)"
       d="m 578.64746,228.80745 c 0,2.38491 -1.38096,4.31826 -3.08447,4.31826 -1.70351,0 -3.08448,-1.93335 -3.08448,-4.31826 0,-2.38491 1.38097,-4.31827 3.08448,-4.31827 1.70351,0 3.08447,1.93336 3.08447,4.31827 z"
       sodipodi:ry="4.3182645"
       sodipodi:rx="3.0844746"
       sodipodi:cy="228.80745"
       sodipodi:cx="575.56299"
       id="path3773"
       style="fill:#000000;fill-opacity:1;stroke:#000000;stroke-width:0.49606299;stroke-miterlimit:4;stroke-opacity:1;stroke-dasharray:none;stroke-dashoffset:0"
       sodipodi:type="arc" />
  </g>
</svg>
