<?xml version="1.0" encoding="UTF-8" standalone="no"?>
<!-- Created with Inkscape (http://www.inkscape.org/) -->

<svg
   xmlns:dc="http://purl.org/dc/elements/1.1/"
   xmlns:cc="http://creativecommons.org/ns#"
   xmlns:rdf="http://www.w3.org/1999/02/22-rdf-syntax-ns#"
   xmlns:svg="http://www.w3.org/2000/svg"
   xmlns="http://www.w3.org/2000/svg"
   xmlns:sodipodi="http://sodipodi.sourceforge.net/DTD/sodipodi-0.dtd"
   xmlns:inkscape="http://www.inkscape.org/namespaces/inkscape"
   width="640.1886"
   height="376.22736"
   id="svg3061"
   version="1.1"
   inkscape:version="0.48.3.1 r9886"
   sodipodi:docname="posture.svg"
   inkscape:export-filename="/home/enpjp/Keys/knowledge_base_files/kb-springmoths/spring-moths/resources/posture-flat-wings-along_body.png"
   inkscape:export-xdpi="150"
   inkscape:export-ydpi="150">
  <defs
     id="defs3063" />
  <sodipodi:namedview
     id="base"
     pagecolor="#ffffff"
     bordercolor="#666666"
     borderopacity="1.0"
     inkscape:pageopacity="0.0"
     inkscape:pageshadow="2"
     inkscape:zoom="2.3853645"
     inkscape:cx="320.0943"
     inkscape:cy="188.11367"
     inkscape:document-units="mm"
     inkscape:current-layer="layer2"
     showgrid="false"
     inkscape:window-width="1590"
     inkscape:window-height="813"
     inkscape:window-x="145"
     inkscape:window-y="30"
     inkscape:window-maximized="0"
     units="mm"
     fit-margin-top="20"
     fit-margin-left="20"
     fit-margin-bottom="20"
     fit-margin-right="20" />
  <metadata
     id="metadata3066">
    <rdf:RDF>
      <cc:Work
         rdf:about="">
        <dc:format>image/svg+xml</dc:format>
        <dc:type
           rdf:resource="http://purl.org/dc/dcmitype/StillImage" />
        <dc:title></dc:title>
      </cc:Work>
    </rdf:RDF>
  </metadata>
  <g
     inkscape:label="Flat Wings Spread"
     inkscape:groupmode="layer"
     id="layer1"
     style="display:none"
     transform="translate(-6.7676837,-326.23794)">
    <path
       style="fill:#cccccc;stroke:#000000;stroke-width:0.48430353px;stroke-linecap:butt;stroke-linejoin:miter;stroke-opacity:1"
       d="m 346.10028,466.88282 c 67.25669,11.20604 182.3739,29.67535 207.88241,45.86309 28.31363,25.70667 -4.60835,68.191 -37.66235,66.41902 -75.12384,-10.08696 -126.84706,-37.92685 -153.50861,-57.3634 l -19.25494,-43.11029 z"
       id="path2998"
       inkscape:connector-curvature="0"
       sodipodi:nodetypes="cccccc"
       inkscape:export-filename="/home/enpjp/Keys/knowledge_base_files/kb-springmoths/spring-moths/resources/fore_wing_shape_very_broad.png"
       inkscape:export-xdpi="150"
       inkscape:export-ydpi="150" />
    <path
       inkscape:export-ydpi="150"
       inkscape:export-xdpi="150"
       inkscape:export-filename="/home/enpjp/Keys/knowledge_base_files/kb-springmoths/spring-moths/resources/fore_wing_shape_very_broad.png"
       sodipodi:nodetypes="cccccc"
       inkscape:connector-curvature="0"
       id="path3000"
       d="m 340.69185,447.64069 c 66.64107,-14.42245 141.85856,-34.15892 210.1253,-34.14499 35.8053,13.4341 23.70308,47.93231 20.34528,71.3604 -35.86954,22.08634 -163.42941,27.38549 -197.60479,18.9454 l -30.86891,-44.24777 z"
       style="fill:#cccccc;stroke:#000000;stroke-width:0.48430353px;stroke-linecap:butt;stroke-linejoin:miter;stroke-opacity:1" />
    <path
       inkscape:export-ydpi="150"
       inkscape:export-xdpi="150"
       inkscape:export-filename="/home/enpjp/Keys/knowledge_base_files/kb-springmoths/spring-moths/resources/fore_wing_shape_very_broad.png"
       sodipodi:nodetypes="cccccc"
       inkscape:connector-curvature="0"
       id="path3088"
       d="m 307.62368,465.93517 c -67.25669,11.20604 -182.3739,29.67535 -207.882416,45.86309 -28.313628,25.70667 4.608356,68.191 37.662356,66.41902 75.12384,-10.08696 126.84706,-37.92685 153.50861,-57.3634 l 19.25494,-43.11029 z"
       style="fill:#cccccc;stroke:#000000;stroke-width:0.48430353px;stroke-linecap:butt;stroke-linejoin:miter;stroke-opacity:1" />
    <path
       style="fill:#cccccc;stroke:#000000;stroke-width:0.48430353px;stroke-linecap:butt;stroke-linejoin:miter;stroke-opacity:1"
       d="m 313.03211,446.69304 c -66.64107,-14.42245 -141.85856,-34.15892 -210.1253,-34.14499 -35.805302,13.4341 -23.703081,47.93231 -20.345286,71.3604 35.869546,22.08634 163.429416,27.38549 197.604796,18.9454 l 30.86891,-44.24777 z"
       id="path3755"
       inkscape:connector-curvature="0"
       sodipodi:nodetypes="cccccc"
       inkscape:export-filename="/home/enpjp/Keys/knowledge_base_files/kb-springmoths/spring-moths/resources/fore_wing_shape_very_broad.png"
       inkscape:export-xdpi="150"
       inkscape:export-ydpi="150" />
  </g>
  <g
     inkscape:groupmode="layer"
     id="layer2"
     inkscape:label="Body"
     style="display:inline"
     transform="translate(-6.7676837,-326.23794)">
    <g
       id="g3014">
      <path
         inkscape:connector-curvature="0"
         id="path3002"
         d="m 355.52526,397.60408 c -26.04152,37.20217 -26.04152,36.78881 -26.04152,36.78881"
         style="fill:none;stroke:#000000;stroke-width:1px;stroke-linecap:butt;stroke-linejoin:miter;stroke-opacity:1;display:inline" />
      <path
         style="fill:none;stroke:#000000;stroke-width:1px;stroke-linecap:butt;stroke-linejoin:miter;stroke-opacity:1;display:inline"
         d="m 297.48374,397.60408 c 26.04152,37.20217 26.04152,36.78881 26.04152,36.78881"
         id="path3004"
         inkscape:connector-curvature="0" />
      <path
         transform="matrix(0.66732755,0,0,1,-85.370038,200.24753)"
         d="m 648.35655,334.91339 c 0,53.14946 -14.36205,96.23561 -32.07853,96.23561 -17.71649,0 -32.07854,-43.08615 -32.07854,-96.23561 0,-53.14946 14.36205,-96.23561 32.07854,-96.23561 17.71648,0 32.07853,43.08615 32.07853,96.23561 z"
         sodipodi:ry="96.235611"
         sodipodi:rx="32.078537"
         sodipodi:cy="334.91339"
         sodipodi:cx="616.27802"
         id="path3763"
         style="fill:#cccccc;fill-opacity:1;stroke:#000000;stroke-width:0.49606299;stroke-miterlimit:4;stroke-opacity:1;stroke-dasharray:none;stroke-dashoffset:0;display:inline"
         sodipodi:type="arc" />
      <path
         transform="matrix(0.63643047,0,0,1,-64.5717,226.77401)"
         d="m 647.12279,243.61293 c 0,17.03508 -15.05254,30.84475 -33.62078,30.84475 -18.56824,0 -33.62077,-13.80967 -33.62077,-30.84475 0,-17.03508 15.05253,-30.84475 33.62077,-30.84475 18.56824,0 33.62078,13.80967 33.62078,30.84475 z"
         sodipodi:ry="30.844746"
         sodipodi:rx="33.620773"
         sodipodi:cy="243.61293"
         sodipodi:cx="613.50201"
         id="path3765"
         style="fill:#cccccc;fill-opacity:1;stroke:#000000;stroke-width:0.49606299;stroke-miterlimit:4;stroke-opacity:1;stroke-dasharray:none;stroke-dashoffset:0;display:inline"
         sodipodi:type="arc" />
      <path
         transform="translate(-282.18469,201.48132)"
         d="m 618.74562,237.44398 c 0,3.06632 -4.41909,5.55206 -9.87031,5.55206 -5.45123,0 -9.87032,-2.48574 -9.87032,-5.55206 0,-3.06631 4.41909,-5.55205 9.87032,-5.55205 5.45122,0 9.87031,2.48574 9.87031,5.55205 z"
         sodipodi:ry="5.5520544"
         sodipodi:rx="9.8703184"
         sodipodi:cy="237.44398"
         sodipodi:cx="608.87531"
         id="path3769"
         style="fill:#cccccc;fill-opacity:1;stroke:#000000;stroke-width:0.49606299;stroke-miterlimit:4;stroke-opacity:1;stroke-dasharray:none;stroke-dashoffset:0;display:inline"
         sodipodi:type="arc" />
      <path
         transform="translate(-258.56643,210.34217)"
         d="m 578.64746,228.80745 c 0,2.38491 -1.38096,4.31826 -3.08447,4.31826 -1.70351,0 -3.08448,-1.93335 -3.08448,-4.31826 0,-2.38491 1.38097,-4.31827 3.08448,-4.31827 1.70351,0 3.08447,1.93336 3.08447,4.31827 z"
         sodipodi:ry="4.3182645"
         sodipodi:rx="3.0844746"
         sodipodi:cy="228.80745"
         sodipodi:cx="575.56299"
         id="path3771"
         style="fill:#000000;fill-opacity:1;stroke:#000000;stroke-width:0.49606299;stroke-miterlimit:4;stroke-opacity:1;stroke-dasharray:none;stroke-dashoffset:0;display:inline"
         sodipodi:type="arc" />
      <path
         sodipodi:type="arc"
         style="fill:#000000;fill-opacity:1;stroke:#000000;stroke-width:0.49606299;stroke-miterlimit:4;stroke-opacity:1;stroke-dasharray:none;stroke-dashoffset:0;display:inline"
         id="path3773"
         sodipodi:cx="575.56299"
         sodipodi:cy="228.80745"
         sodipodi:rx="3.0844746"
         sodipodi:ry="4.3182645"
         d="m 578.64746,228.80745 c 0,2.38491 -1.38096,4.31826 -3.08447,4.31826 -1.70351,0 -3.08448,-1.93335 -3.08448,-4.31826 0,-2.38491 1.38097,-4.31827 3.08448,-4.31827 1.70351,0 3.08447,1.93336 3.08447,4.31827 z"
         transform="translate(-240.78062,210.58252)" />
    </g>
  </g>
  <g
     inkscape:groupmode="layer"
     id="layer3"
     inkscape:label="Flat Along Body"
     style="display:inline"
     transform="translate(-6.7676837,-326.23794)">
    <path
       inkscape:export-ydpi="150"
       inkscape:export-xdpi="150"
       inkscape:export-filename="/home/enpjp/Keys/knowledge_base_files/kb-springmoths/spring-moths/resources/fore_wing_shape_very_broad.png"
       sodipodi:nodetypes="cccccc"
       inkscape:connector-curvature="0"
       id="path3026"
       d="m 306.85515,450.27191 c -61.69763,20.73009 -50.97895,113.38555 -50.71034,176.93431 39.0523,15.24266 48.94517,-9.47257 65.30383,0.14759 16.88955,-31.51379 7.00148,-116.24771 2.41258,-147.16425 -9.94488,-19.2081 1.21731,-18.08853 -8.72757,-27.766 z"
       style="fill:#cccccc;stroke:#000000;stroke-width:0.38455483px;stroke-linecap:butt;stroke-linejoin:miter;stroke-opacity:1;display:inline"
       inkscape:transform-center-x="32.682354"
       inkscape:transform-center-y="-76.796395" />
    <path
       inkscape:transform-center-y="-76.796395"
       inkscape:transform-center-x="-32.682354"
       style="fill:#cccccc;stroke:#000000;stroke-width:0.38455483px;stroke-linecap:butt;stroke-linejoin:miter;stroke-opacity:1;display:inline"
       d="m 342.67329,449.84977 c 61.69763,20.73009 50.97895,113.38555 50.71034,176.93431 -39.0523,15.24266 -48.94517,-9.47257 -65.30383,0.14759 -16.88955,-31.51379 -7.00148,-116.24771 -2.41258,-147.16425 9.94488,-19.2081 -1.21731,-18.08853 8.72757,-27.766 z"
       id="path3030"
       inkscape:connector-curvature="0"
       sodipodi:nodetypes="cccccc"
       inkscape:export-filename="/home/enpjp/Keys/knowledge_base_files/kb-springmoths/spring-moths/resources/fore_wing_shape_very_broad.png"
       inkscape:export-xdpi="150"
       inkscape:export-ydpi="150" />
  </g>
</svg>
